{
	"asset": {
		"generator": "VISUALIZEGLTF",
		"version" : "2.0"
	},
	"extensionsUsed": [ "KHR_texture_transform" ],
	"scenes": [
		{
			"name": "Default",
			"nodes": [
				0]
		}
	],
	"nodes": [
		{
			"children": [
				1, 13, 14, 15, 16
			]
			,"name": "Raiz"		}
,
		{
			"children": [
				2
			]
			,"matrix": [
				1,					0,					0,					0,
				0,					1,					0,					0,
				0,					0,					1,					0,
				0,					0.05492233,					0,					1
			]
			,"name": "16385953_VISUALIZE (Valor predeterminado)"		}
,
		{
			"children": [
				3, 4, 5, 6, 7, 8, 9, 10, 11, 12
			]
			,"name": "Valor predeterminado"		}
,
		{
			"mesh": 0
			,"name": "color"		}
,
		{
			"mesh": 1
			,"name": "color-2"		}
,
		{
			"mesh": 2
			,"name": "color-3"		}
,
		{
			"mesh": 3
			,"name": "satin finish aluminum"		}
,
		{
			"mesh": 4
			,"name": "neon stripe pattern"		}
,
		{
			"mesh": 5
			,"name": "color-4"		}
,
		{
			"mesh": 6
			,"name": "color-5"		}
,
		{
			"mesh": 7
			,"name": "color-6"		}
,
		{
			"mesh": 8
			,"name": "color-6 (Cosmetic Thread)"		}
,
		{
			"mesh": 9
			,"name": "matte steel"		}
,
		{
			"matrix": [
				0.9128005,					0.0503506,					0.4052903,					0,
				-0.0786099,					0.9954755,					0.05337499,					0,
				-0.4007691,					-0.08058053,					0.9126285,					0,
				-0.3460946,					-0.01490491,					0.8383403,					1
			]
			,"camera": 0
			,"name": "SOLIDWORKS Viewport"		}
,
		{
			"matrix": [
				0.7071068,					0,					-0.7071068,					0,
				-0.1622216,					0.9733286,					-0.1622216,					0,
				0.6882472,					0.2294159,					0.6882472,					0,
				4.445094,					1.981699,					4.445094,					1
			]
			,"camera": 1
			,"name": "Default Camera"		}
,
		{
			"name": "3 Point Faded"		}
,
		{
			"name": "3 Point Faded Backplate"		}
	],
	"cameras": [
		{
			"type": "perspective",
			"perspective" : {
				"aspectRatio": 1.25,
				"yfov" : 0.3215369,
				"zfar" : 100,
				"znear" : 0.01
			}
		}
,
		{
			"type": "perspective",
			"perspective" : {
				"aspectRatio": 1.777778,
				"yfov" : 0.2617994,
				"zfar" : 100,
				"znear" : 0.01
			}
		}
	],
	"meshes" : [
		{
			"primitives" : [
				{
					"attributes" : {
					"POSITION" : 1
					,"NORMAL" : 2
					,"TEXCOORD_0" : 3
					},
					"indices" : 0,
					"mode": 4,
					"material" : 0
				}
			]
		},
		{
			"primitives" : [
				{
					"attributes" : {
					"POSITION" : 5
					,"NORMAL" : 6
					,"TEXCOORD_0" : 7
					},
					"indices" : 4,
					"mode": 4,
					"material" : 1
				}
			]
		},
		{
			"primitives" : [
				{
					"attributes" : {
					"POSITION" : 9
					,"NORMAL" : 10
					,"TEXCOORD_0" : 11
					},
					"indices" : 8,
					"mode": 4,
					"material" : 2
				}
			]
		},
		{
			"primitives" : [
				{
					"attributes" : {
					"POSITION" : 13
					,"NORMAL" : 14
					,"TEXCOORD_0" : 15
					},
					"indices" : 12,
					"mode": 4,
					"material" : 3
				},
				{
					"attributes" : {
					"POSITION" : 17
					,"NORMAL" : 18
					,"TEXCOORD_0" : 19
					},
					"indices" : 16,
					"mode": 4,
					"material" : 3
				},
				{
					"attributes" : {
					"POSITION" : 21
					,"NORMAL" : 22
					,"TEXCOORD_0" : 23
					},
					"indices" : 20,
					"mode": 4,
					"material" : 3
				},
				{
					"attributes" : {
					"POSITION" : 25
					,"NORMAL" : 26
					,"TEXCOORD_0" : 27
					},
					"indices" : 24,
					"mode": 4,
					"material" : 3
				},
				{
					"attributes" : {
					"POSITION" : 29
					,"NORMAL" : 30
					,"TEXCOORD_0" : 31
					},
					"indices" : 28,
					"mode": 4,
					"material" : 3
				},
				{
					"attributes" : {
					"POSITION" : 33
					,"NORMAL" : 34
					,"TEXCOORD_0" : 35
					},
					"indices" : 32,
					"mode": 4,
					"material" : 3
				}
			]
		},
		{
			"primitives" : [
				{
					"attributes" : {
					"POSITION" : 37
					,"NORMAL" : 38
					,"TEXCOORD_0" : 39
					},
					"indices" : 36,
					"mode": 4,
					"material" : 4
				}
			]
		},
		{
			"primitives" : [
				{
					"attributes" : {
					"POSITION" : 41
					,"NORMAL" : 42
					,"TEXCOORD_0" : 43
					},
					"indices" : 40,
					"mode": 4,
					"material" : 5
				}
			]
		},
		{
			"primitives" : [
				{
					"attributes" : {
					"POSITION" : 45
					,"NORMAL" : 46
					,"TEXCOORD_0" : 47
					},
					"indices" : 44,
					"mode": 4,
					"material" : 6
				}
			]
		},
		{
			"primitives" : [
				{
					"attributes" : {
					"POSITION" : 49
					,"NORMAL" : 50
					,"TEXCOORD_0" : 51
					},
					"indices" : 48,
					"mode": 4,
					"material" : 7
				}
			]
		},
		{
			"primitives" : [
				{
					"attributes" : {
					"POSITION" : 53
					,"NORMAL" : 54
					,"TEXCOORD_0" : 55
					},
					"indices" : 52,
					"mode": 4,
					"material" : 8
				}
			]
		},
		{
			"primitives" : [
				{
					"attributes" : {
					"POSITION" : 57
					,"NORMAL" : 58
					,"TEXCOORD_0" : 59
					},
					"indices" : 56,
					"mode": 4,
					"material" : 9
				}
			]
		}
	],
	"accessors" : [
			{
				"bufferView": 3,
				"byteOffset" : 0,
				"componentType" : 5125,
				"count" : 53820,
				"type" : "SCALAR"
			},
			{
				"bufferView": 0,
				"byteOffset" : 0,
				"componentType" : 5126,
				"count" : 22736,
				"type" : "VEC3"
								,"min": [-0.0456749983,-0.0456749983,-5.42101086E-20]
								,"max": [0.0456749983,0.0456749983,0.0771500021]
			},
			{
				"bufferView": 1,
				"byteOffset" : 0,
				"componentType" : 5126,
				"count" : 22736,
				"type" : "VEC3"
			},
			{
				"bufferView": 2,
				"byteOffset" : 0,
				"componentType" : 5126,
				"count" : 22736,
				"type" : "VEC2"
			},
			{
				"bufferView": 7,
				"byteOffset" : 0,
				"componentType" : 5125,
				"count" : 3816,
				"type" : "SCALAR"
			},
			{
				"bufferView": 4,
				"byteOffset" : 0,
				"componentType" : 5126,
				"count" : 2138,
				"type" : "VEC3"
								,"min": [-0.0456749983,-0.0456749983,0]
								,"max": [0.0456749983,0.0456749983,0.0350000001]
			},
			{
				"bufferView": 5,
				"byteOffset" : 0,
				"componentType" : 5126,
				"count" : 2138,
				"type" : "VEC3"
			},
			{
				"bufferView": 6,
				"byteOffset" : 0,
				"componentType" : 5126,
				"count" : 2138,
				"type" : "VEC2"
			},
			{
				"bufferView": 11,
				"byteOffset" : 0,
				"componentType" : 5125,
				"count" : 13338,
				"type" : "SCALAR"
			},
			{
				"bufferView": 8,
				"byteOffset" : 0,
				"componentType" : 5126,
				"count" : 5394,
				"type" : "VEC3"
								,"min": [-0.0425000004,-0.0424875915,-0.0309999995]
								,"max": [0.0425000004,0.0424875915,0.061999999]
			},
			{
				"bufferView": 9,
				"byteOffset" : 0,
				"componentType" : 5126,
				"count" : 5394,
				"type" : "VEC3"
			},
			{
				"bufferView": 10,
				"byteOffset" : 0,
				"componentType" : 5126,
				"count" : 5394,
				"type" : "VEC2"
			},
			{
				"bufferView": 15,
				"byteOffset" : 0,
				"componentType" : 5125,
				"count" : 142959,
				"type" : "SCALAR"
			},
			{
				"bufferView": 12,
				"byteOffset" : 0,
				"componentType" : 5126,
				"count" : 65533,
				"type" : "VEC3"
								,"min": [-0.0520215631,-0.0541285835,0.0450199991]
								,"max": [0.0520215631,0.0520499982,0.0799999982]
			},
			{
				"bufferView": 13,
				"byteOffset" : 0,
				"componentType" : 5126,
				"count" : 65533,
				"type" : "VEC3"
			},
			{
				"bufferView": 14,
				"byteOffset" : 0,
				"componentType" : 5126,
				"count" : 65533,
				"type" : "VEC2"
			},
			{
				"bufferView": 15,
				"byteOffset" : 571836,
				"componentType" : 5125,
				"count" : 142725,
				"type" : "SCALAR"
			},
			{
				"bufferView": 12,
				"byteOffset" : 786396,
				"componentType" : 5126,
				"count" : 65533,
				"type" : "VEC3"
								,"min": [-0.0482704155,-0.054156404,0.0465000011]
								,"max": [0.0482704155,0.0482704155,0.0784912705]
			},
			{
				"bufferView": 13,
				"byteOffset" : 786396,
				"componentType" : 5126,
				"count" : 65533,
				"type" : "VEC3"
			},
			{
				"bufferView": 14,
				"byteOffset" : 524264,
				"componentType" : 5126,
				"count" : 65533,
				"type" : "VEC2"
			},
			{
				"bufferView": 15,
				"byteOffset" : 1142736,
				"componentType" : 5125,
				"count" : 142773,
				"type" : "SCALAR"
			},
			{
				"bufferView": 12,
				"byteOffset" : 1572792,
				"componentType" : 5126,
				"count" : 65535,
				"type" : "VEC3"
								,"min": [-0.0518275127,-0.0516281426,-0.0170000009]
								,"max": [0.0518275127,0.0518179983,0.0787499994]
			},
			{
				"bufferView": 13,
				"byteOffset" : 1572792,
				"componentType" : 5126,
				"count" : 65535,
				"type" : "VEC3"
			},
			{
				"bufferView": 14,
				"byteOffset" : 1048528,
				"componentType" : 5126,
				"count" : 65535,
				"type" : "VEC2"
			},
			{
				"bufferView": 15,
				"byteOffset" : 1713828,
				"componentType" : 5125,
				"count" : 141333,
				"type" : "SCALAR"
			},
			{
				"bufferView": 12,
				"byteOffset" : 2359212,
				"componentType" : 5126,
				"count" : 65533,
				"type" : "VEC3"
								,"min": [-0.0519055203,-0.0546214543,-0.049999997]
								,"max": [0.0544311367,0.0546214543,0.0464999974]
			},
			{
				"bufferView": 13,
				"byteOffset" : 2359212,
				"componentType" : 5126,
				"count" : 65533,
				"type" : "VEC3"
			},
			{
				"bufferView": 14,
				"byteOffset" : 1572808,
				"componentType" : 5126,
				"count" : 65533,
				"type" : "VEC2"
			},
			{
				"bufferView": 15,
				"byteOffset" : 2279160,
				"componentType" : 5125,
				"count" : 146523,
				"type" : "SCALAR"
			},
			{
				"bufferView": 12,
				"byteOffset" : 3145608,
				"componentType" : 5126,
				"count" : 65533,
				"type" : "VEC3"
								,"min": [-0.0495537147,-0.0546223335,-0.049999997]
								,"max": [0.0505156517,0.0546223335,0.0463044643]
			},
			{
				"bufferView": 13,
				"byteOffset" : 3145608,
				"componentType" : 5126,
				"count" : 65533,
				"type" : "VEC3"
			},
			{
				"bufferView": 14,
				"byteOffset" : 2097072,
				"componentType" : 5126,
				"count" : 65533,
				"type" : "VEC2"
			},
			{
				"bufferView": 15,
				"byteOffset" : 2865252,
				"componentType" : 5125,
				"count" : 59739,
				"type" : "SCALAR"
			},
			{
				"bufferView": 12,
				"byteOffset" : 3932004,
				"componentType" : 5126,
				"count" : 26789,
				"type" : "VEC3"
								,"min": [-0.0519014969,-0.0546223335,-0.0487499982]
								,"max": [0.0519014895,0.0546223335,0.0464999974]
			},
			{
				"bufferView": 13,
				"byteOffset" : 3932004,
				"componentType" : 5126,
				"count" : 26789,
				"type" : "VEC3"
			},
			{
				"bufferView": 14,
				"byteOffset" : 2621336,
				"componentType" : 5126,
				"count" : 26789,
				"type" : "VEC2"
			},
			{
				"bufferView": 19,
				"byteOffset" : 0,
				"componentType" : 5125,
				"count" : 282,
				"type" : "SCALAR"
			},
			{
				"bufferView": 16,
				"byteOffset" : 0,
				"componentType" : 5126,
				"count" : 96,
				"type" : "VEC3"
								,"min": [-0.0270526335,-0.0270255543,-0.00499999989]
								,"max": [0.027016148,0.0270494949,0.0350000001]
			},
			{
				"bufferView": 17,
				"byteOffset" : 0,
				"componentType" : 5126,
				"count" : 96,
				"type" : "VEC3"
			},
			{
				"bufferView": 18,
				"byteOffset" : 0,
				"componentType" : 5126,
				"count" : 96,
				"type" : "VEC2"
			},
			{
				"bufferView": 23,
				"byteOffset" : 0,
				"componentType" : 5125,
				"count" : 90354,
				"type" : "SCALAR"
			},
			{
				"bufferView": 20,
				"byteOffset" : 0,
				"componentType" : 5126,
				"count" : 38990,
				"type" : "VEC3"
								,"min": [-0.0160000008,-0.0159855839,0.0625]
								,"max": [0.0160000008,0.0159855839,0.0725000054]
			},
			{
				"bufferView": 21,
				"byteOffset" : 0,
				"componentType" : 5126,
				"count" : 38990,
				"type" : "VEC3"
			},
			{
				"bufferView": 22,
				"byteOffset" : 0,
				"componentType" : 5126,
				"count" : 38990,
				"type" : "VEC2"
			},
			{
				"bufferView": 27,
				"byteOffset" : 0,
				"componentType" : 5125,
				"count" : 66054,
				"type" : "SCALAR"
			},
			{
				"bufferView": 24,
				"byteOffset" : 0,
				"componentType" : 5126,
				"count" : 26638,
				"type" : "VEC3"
								,"min": [-0.0138308555,-0.0138278222,0.0625]
								,"max": [0.0138187231,0.0138278222,0.0725000054]
			},
			{
				"bufferView": 25,
				"byteOffset" : 0,
				"componentType" : 5126,
				"count" : 26638,
				"type" : "VEC3"
			},
			{
				"bufferView": 26,
				"byteOffset" : 0,
				"componentType" : 5126,
				"count" : 26638,
				"type" : "VEC2"
			},
			{
				"bufferView": 31,
				"byteOffset" : 0,
				"componentType" : 5125,
				"count" : 30816,
				"type" : "SCALAR"
			},
			{
				"bufferView": 28,
				"byteOffset" : 0,
				"componentType" : 5126,
				"count" : 13272,
				"type" : "VEC3"
								,"min": [-0.0492676832,-0.0494644754,0.0364999995]
								,"max": [0.0494644754,0.0423903689,0.0624543615]
			},
			{
				"bufferView": 29,
				"byteOffset" : 0,
				"componentType" : 5126,
				"count" : 13272,
				"type" : "VEC3"
			},
			{
				"bufferView": 30,
				"byteOffset" : 0,
				"componentType" : 5126,
				"count" : 13272,
				"type" : "VEC2"
			},
			{
				"bufferView": 35,
				"byteOffset" : 0,
				"componentType" : 5125,
				"count" : 768,
				"type" : "SCALAR"
			},
			{
				"bufferView": 32,
				"byteOffset" : 0,
				"componentType" : 5126,
				"count" : 264,
				"type" : "VEC3"
								,"min": [-0.0408489332,-0.0408489332,0.0385340862]
								,"max": [0.0408489332,0.0408485942,0.0533000007]
			},
			{
				"bufferView": 33,
				"byteOffset" : 0,
				"componentType" : 5126,
				"count" : 264,
				"type" : "VEC3"
			},
			{
				"bufferView": 34,
				"byteOffset" : 0,
				"componentType" : 5126,
				"count" : 264,
				"type" : "VEC2"
			},
			{
				"bufferView": 39,
				"byteOffset" : 0,
				"componentType" : 5125,
				"count" : 6588,
				"type" : "SCALAR"
			},
			{
				"bufferView": 36,
				"byteOffset" : 0,
				"componentType" : 5126,
				"count" : 2410,
				"type" : "VEC3"
								,"min": [-0.00634526834,-0.00634526834,-0.0420000032]
								,"max": [0.00634526834,0.00634526834,0.145000011]
			},
			{
				"bufferView": 37,
				"byteOffset" : 0,
				"componentType" : 5126,
				"count" : 2410,
				"type" : "VEC3"
			},
			{
				"bufferView": 38,
				"byteOffset" : 0,
				"componentType" : 5126,
				"count" : 2410,
				"type" : "VEC2"
			}
	],
	"materials": [
			{
				"name": "color",
				"emissiveFactor": [
					0, 0, 0
				]
				,"pbrMetallicRoughness": {
					"baseColorFactor": [
						0.6064497, 0.6537905, 0.870804, 1
					]
					,"metallicFactor": 0.08936077
					,"roughnessFactor": 0.01336535
				}
				,"alphaMode": "OPAQUE"
				,"doubleSided": true
			},
			{
				"name": "color-2",
				"emissiveFactor": [
					0, 0, 0
				]
				,"pbrMetallicRoughness": {
					"baseColorFactor": [
						0.5494809, 0.5494809, 0.5494809, 1
					]
					,"metallicFactor": 0.08394644
					,"roughnessFactor": 0.01336535
				}
				,"alphaMode": "OPAQUE"
				,"doubleSided": true
			},
			{
				"name": "color-3",
				"emissiveFactor": [
					0, 0, 0
				]
				,"pbrMetallicRoughness": {
					"baseColorFactor": [
						0.9076841, 0.1852907, 0.0004611477, 1
					]
					,"metallicFactor": 0.139074
					,"roughnessFactor": 0.01336535
				}
				,"alphaMode": "OPAQUE"
				,"doubleSided": true
			},
			{
				"name": "satin finish aluminum",
				"emissiveFactor": [
					0, 0, 0
				]
				,"pbrMetallicRoughness": {
					"baseColorFactor": [
						0.7299189, 0.8122415, 1, 1
					]
					,"metallicFactor": 1
					,"roughnessFactor": 0.3304235
				}
				,"alphaMode": "OPAQUE"
				,"doubleSided": true
			},
			{
				"name": "neon stripe pattern",
				"emissiveFactor": [
					0, 0, 0
				]
				,"pbrMetallicRoughness": {
					"baseColorTexture": {
						"index": 0
						,"extensions": {
							"KHR_texture_transform": {
								"offset": [11.38343,-34.00117],
								"rotation": 4.712389,
								"scale": [21.76686, 21.76686]
							}
						}
					}
					,"baseColorFactor": [
						1, 1, 1, 1
					]
					,"metallicFactor": 0
					,"roughnessFactor": 0.01453914
				}
				,"alphaMode": "OPAQUE"
				,"doubleSided": true
			},
			{
				"name": "color-4",
				"emissiveFactor": [
					0, 0, 0
				]
				,"pbrMetallicRoughness": {
					"baseColorFactor": [
						0.5436423, 0.5436423, 0.5436423, 1
					]
					,"metallicFactor": 0.08436963
					,"roughnessFactor": 0.01336535
				}
				,"alphaMode": "OPAQUE"
				,"doubleSided": true
			},
			{
				"name": "color-5",
				"emissiveFactor": [
					0, 0, 0
				]
				,"pbrMetallicRoughness": {
					"baseColorFactor": [
						0.9913625, 0.9913625, 0.2166581, 1
					]
					,"metallicFactor": 0.06609932
					,"roughnessFactor": 0.01336535
				}
				,"alphaMode": "OPAQUE"
				,"doubleSided": true
			},
			{
				"name": "color-6",
				"emissiveFactor": [
					0, 0, 0
				]
				,"pbrMetallicRoughness": {
					"baseColorFactor": [
						0.9119785, 0.4372281, 0.009032018, 1
					]
					,"metallicFactor": 0.09115338
					,"roughnessFactor": 0.01336535
				}
				,"alphaMode": "OPAQUE"
				,"doubleSided": true
			},
			{
				"name": "color-6 (Cosmetic Thread)",
					"normalTexture": {
						"index": 1,
						"scale": 0.3
						,"extensions": {
							"KHR_texture_transform": {
								"offset": [0,0],
								"rotation": 0,
								"scale": [56.44987, 56.44987]
							}
						}
					}
				,"emissiveFactor": [
					0, 0, 0
				]
				,"pbrMetallicRoughness": {
					"baseColorFactor": [
						0.9119785, 0.4372281, 0.009032018, 1
					]
					,"metallicFactor": 0.09115338
					,"roughnessFactor": 0.01336535
				}
				,"alphaMode": "OPAQUE"
				,"doubleSided": true
			},
			{
				"name": "matte steel",
				"emissiveFactor": [
					0, 0, 0
				]
				,"pbrMetallicRoughness": {
					"baseColorFactor": [
						0.3889103, 0.3488649, 0.3111805, 1
					]
					,"metallicFactor": 1
					,"roughnessFactor": 0.6996359
				}
				,"alphaMode": "OPAQUE"
				,"doubleSided": true
			}
	],
	"textures": [
			{
				"sampler": 0,
				"source": 0,
				"name": "15979053_Texture_0002.png"
			},
			{
				"sampler": 1,
				"source": 1,
				"name": "15979053_Texture_0004.png"
			}
	],
	"images": [
			{
				"uri": "15979053_Texture_0002.png"
			},
			{
				"uri": "15979053_Texture_0004.png"
			}
	],
	"samplers": [
			{
				"magFilter": 9729,
				"minFilter" : 9729,
				"wrapS" : 10497,
				"wrapT" : 10497,
				"name": "DefaultSampler"
			},
			{
				"magFilter": 9729,
				"minFilter" : 9729,
				"wrapS" : 10497,
				"wrapT" : 10497,
				"name": "DefaultSampler"
			}
	],
	"bufferViews" : [
			{
				"buffer": 0
				,"byteOffset" : 0
				,"byteLength" : 272832
				,"byteStride" : 12
				,"target" : 34962
			},
			{
				"buffer": 0
				,"byteOffset" : 272832
				,"byteLength" : 272832
				,"byteStride" : 12
				,"target" : 34962
			},
			{
				"buffer": 0
				,"byteOffset" : 545664
				,"byteLength" : 181888
				,"byteStride" : 8
				,"target" : 34962
			},
			{
				"buffer": 0
				,"byteOffset" : 727552
				,"byteLength" : 215280
				,"target" : 34963
			},
			{
				"buffer": 1
				,"byteOffset" : 0
				,"byteLength" : 25656
				,"byteStride" : 12
				,"target" : 34962
			},
			{
				"buffer": 1
				,"byteOffset" : 25656
				,"byteLength" : 25656
				,"byteStride" : 12
				,"target" : 34962
			},
			{
				"buffer": 1
				,"byteOffset" : 51312
				,"byteLength" : 17104
				,"byteStride" : 8
				,"target" : 34962
			},
			{
				"buffer": 1
				,"byteOffset" : 68416
				,"byteLength" : 15264
				,"target" : 34963
			},
			{
				"buffer": 2
				,"byteOffset" : 0
				,"byteLength" : 64728
				,"byteStride" : 12
				,"target" : 34962
			},
			{
				"buffer": 2
				,"byteOffset" : 64728
				,"byteLength" : 64728
				,"byteStride" : 12
				,"target" : 34962
			},
			{
				"buffer": 2
				,"byteOffset" : 129456
				,"byteLength" : 43152
				,"byteStride" : 8
				,"target" : 34962
			},
			{
				"buffer": 2
				,"byteOffset" : 172608
				,"byteLength" : 53352
				,"target" : 34963
			},
			{
				"buffer": 3
				,"byteOffset" : 0
				,"byteLength" : 4253472
				,"byteStride" : 12
				,"target" : 34962
			},
			{
				"buffer": 3
				,"byteOffset" : 4253472
				,"byteLength" : 4253472
				,"byteStride" : 12
				,"target" : 34962
			},
			{
				"buffer": 3
				,"byteOffset" : 8506944
				,"byteLength" : 2835648
				,"byteStride" : 8
				,"target" : 34962
			},
			{
				"buffer": 3
				,"byteOffset" : 11342592
				,"byteLength" : 3104208
				,"target" : 34963
			},
			{
				"buffer": 4
				,"byteOffset" : 0
				,"byteLength" : 1152
				,"byteStride" : 12
				,"target" : 34962
			},
			{
				"buffer": 4
				,"byteOffset" : 1152
				,"byteLength" : 1152
				,"byteStride" : 12
				,"target" : 34962
			},
			{
				"buffer": 4
				,"byteOffset" : 2304
				,"byteLength" : 768
				,"byteStride" : 8
				,"target" : 34962
			},
			{
				"buffer": 4
				,"byteOffset" : 3072
				,"byteLength" : 1128
				,"target" : 34963
			},
			{
				"buffer": 5
				,"byteOffset" : 0
				,"byteLength" : 467880
				,"byteStride" : 12
				,"target" : 34962
			},
			{
				"buffer": 5
				,"byteOffset" : 467880
				,"byteLength" : 467880
				,"byteStride" : 12
				,"target" : 34962
			},
			{
				"buffer": 5
				,"byteOffset" : 935760
				,"byteLength" : 311920
				,"byteStride" : 8
				,"target" : 34962
			},
			{
				"buffer": 5
				,"byteOffset" : 1247680
				,"byteLength" : 361416
				,"target" : 34963
			},
			{
				"buffer": 6
				,"byteOffset" : 0
				,"byteLength" : 319656
				,"byteStride" : 12
				,"target" : 34962
			},
			{
				"buffer": 6
				,"byteOffset" : 319656
				,"byteLength" : 319656
				,"byteStride" : 12
				,"target" : 34962
			},
			{
				"buffer": 6
				,"byteOffset" : 639312
				,"byteLength" : 213104
				,"byteStride" : 8
				,"target" : 34962
			},
			{
				"buffer": 6
				,"byteOffset" : 852416
				,"byteLength" : 264216
				,"target" : 34963
			},
			{
				"buffer": 7
				,"byteOffset" : 0
				,"byteLength" : 159264
				,"byteStride" : 12
				,"target" : 34962
			},
			{
				"buffer": 7
				,"byteOffset" : 159264
				,"byteLength" : 159264
				,"byteStride" : 12
				,"target" : 34962
			},
			{
				"buffer": 7
				,"byteOffset" : 318528
				,"byteLength" : 106176
				,"byteStride" : 8
				,"target" : 34962
			},
			{
				"buffer": 7
				,"byteOffset" : 424704
				,"byteLength" : 123264
				,"target" : 34963
			},
			{
				"buffer": 8
				,"byteOffset" : 0
				,"byteLength" : 3168
				,"byteStride" : 12
				,"target" : 34962
			},
			{
				"buffer": 8
				,"byteOffset" : 3168
				,"byteLength" : 3168
				,"byteStride" : 12
				,"target" : 34962
			},
			{
				"buffer": 8
				,"byteOffset" : 6336
				,"byteLength" : 2112
				,"byteStride" : 8
				,"target" : 34962
			},
			{
				"buffer": 8
				,"byteOffset" : 8448
				,"byteLength" : 3072
				,"target" : 34963
			},
			{
				"buffer": 9
				,"byteOffset" : 0
				,"byteLength" : 28920
				,"byteStride" : 12
				,"target" : 34962
			},
			{
				"buffer": 9
				,"byteOffset" : 28920
				,"byteLength" : 28920
				,"byteStride" : 12
				,"target" : 34962
			},
			{
				"buffer": 9
				,"byteOffset" : 57840
				,"byteLength" : 19280
				,"byteStride" : 8
				,"target" : 34962
			},
			{
				"buffer": 9
				,"byteOffset" : 77120
				,"byteLength" : 26352
				,"target" : 34963
			}
	],
	"buffers" : [
			{
				"byteLength": 942832
				,"uri" : "15979053_0001.bin"
			},
			{
				"byteLength": 83680
				,"uri" : "15979053_0002.bin"
			},
			{
				"byteLength": 225960
				,"uri" : "15979053_0003.bin"
			},
			{
				"byteLength": 14446800
				,"uri" : "15979053_0004.bin"
			},
			{
				"byteLength": 4200
				,"uri" : "15979053_0005.bin"
			},
			{
				"byteLength": 1609096
				,"uri" : "15979053_0006.bin"
			},
			{
				"byteLength": 1116632
				,"uri" : "15979053_0007.bin"
			},
			{
				"byteLength": 547968
				,"uri" : "15979053_0008.bin"
			},
			{
				"byteLength": 11520
				,"uri" : "15979053_0009.bin"
			},
			{
				"byteLength": 103472
				,"uri" : "15979053_0010.bin"
			}
	]
}
