{"buffers":[{"uri":"16608866.bin","byteLength":8016420}],"asset":{"version":"2.0","generator":"gltfpack 0.16"},"bufferViews":[{"buffer":0,"byteOffset":0,"byteLength":2845440,"byteStride":12,"target":34962},{"buffer":0,"byteOffset":2845440,"byteLength":2845440,"byteStride":12,"target":34962},{"buffer":0,"byteOffset":5690880,"byteLength":2325540,"target":34963}],"accessors":[{"bufferView":0,"byteOffset":0,"componentType":5126,"count":1517,"type":"VEC3","min":[-0.151189998,-0.00608999981,-0.00608999981],"max":[0.0921000019,0.00608999981,0.00608999981]},{"bufferView":1,"byteOffset":0,"componentType":5126,"count":1517,"type":"VEC3"},{"bufferView":2,"byteOffset":0,"componentType":5123,"count":6204,"type":"SCALAR"},{"bufferView":0,"byteOffset":18204,"componentType":5126,"count":39929,"type":"VEC3","min":[-0.138099998,-0.0482214466,-0.0491897166],"max":[-0.116109997,0.0494909659,0.049210351]},{"bufferView":1,"byteOffset":18204,"componentType":5126,"count":39929,"type":"VEC3"},{"bufferView":2,"byteOffset":12408,"componentType":5123,"count":202200,"type":"SCALAR"},{"bufferView":0,"byteOffset":497352,"componentType":5126,"count":34063,"type":"VEC3","min":[-0.155900002,-0.0606276952,-0.0606276952],"max":[-0.140900001,0.0606276952,0.0606276952]},{"bufferView":1,"byteOffset":497352,"componentType":5126,"count":34063,"type":"VEC3"},{"bufferView":2,"byteOffset":416808,"componentType":5123,"count":171414,"type":"SCALAR"},{"bufferView":0,"byteOffset":906108,"componentType":5126,"count":12028,"type":"VEC3","min":[-0.149430007,-0.0129000004,-0.0137099996],"max":[-0.142969996,0.0140000004,0.0137099996]},{"bufferView":1,"byteOffset":906108,"componentType":5126,"count":12028,"type":"VEC3"},{"bufferView":2,"byteOffset":759636,"componentType":5123,"count":49920,"type":"SCALAR"},{"bufferView":0,"byteOffset":1050444,"componentType":5126,"count":6244,"type":"VEC3","min":[-0.14181,-0.01382,-0.0138100004],"max":[-0.141210005,0.01382,0.0138299996]},{"bufferView":1,"byteOffset":1050444,"componentType":5126,"count":6244,"type":"VEC3"},{"bufferView":2,"byteOffset":859476,"componentType":5123,"count":31734,"type":"SCALAR"},{"bufferView":0,"byteOffset":1125372,"componentType":5126,"count":4053,"type":"VEC3","min":[-0.151189998,-0.00910000037,-0.00910000037],"max":[-0.141210005,0.00910000037,0.00910000037]},{"bufferView":1,"byteOffset":1125372,"componentType":5126,"count":4053,"type":"VEC3"},{"bufferView":2,"byteOffset":922944,"componentType":5123,"count":17412,"type":"SCALAR"},{"bufferView":0,"byteOffset":1174008,"componentType":5126,"count":4512,"type":"VEC3","min":[-0.151189998,-0.0159799997,-0.0160000008],"max":[-0.141210005,0.0159799997,0.0160000008]},{"bufferView":1,"byteOffset":1174008,"componentType":5126,"count":4512,"type":"VEC3"},{"bufferView":2,"byteOffset":957768,"componentType":5123,"count":22776,"type":"SCALAR"},{"bufferView":0,"byteOffset":1228152,"componentType":5126,"count":7075,"type":"VEC3","min":[-0.151189998,-0.01382,-0.0138100004],"max":[-0.150590003,0.01382,0.0138299996]},{"bufferView":1,"byteOffset":1228152,"componentType":5126,"count":7075,"type":"VEC3"},{"bufferView":2,"byteOffset":1003320,"componentType":5123,"count":33828,"type":"SCALAR"},{"bufferView":0,"byteOffset":1313052,"componentType":5126,"count":1238,"type":"VEC3","min":[-0.0799899995,-0.0561288632,-0.0548170283],"max":[-0.0250100009,0.0563493371,0.0548170283]},{"bufferView":1,"byteOffset":1313052,"componentType":5126,"count":1238,"type":"VEC3"},{"bufferView":2,"byteOffset":1070976,"componentType":5123,"count":3468,"type":"SCALAR"},{"bufferView":0,"byteOffset":1327908,"componentType":5126,"count":2315,"type":"VEC3","min":[-0.108000003,-0.0509680733,-0.0509606972],"max":[0.00499999989,0.0509680733,0.0509606972]},{"bufferView":1,"byteOffset":1327908,"componentType":5126,"count":2315,"type":"VEC3"},{"bufferView":2,"byteOffset":1077912,"componentType":5123,"count":12528,"type":"SCALAR"},{"bufferView":0,"byteOffset":1355688,"componentType":5126,"count":1046,"type":"VEC3","min":[-0.0818099976,-0.0483504087,-0.0483504087],"max":[-0.0231899992,0.0483504087,0.0483504087]},{"bufferView":1,"byteOffset":1355688,"componentType":5126,"count":1046,"type":"VEC3"},{"bufferView":2,"byteOffset":1102968,"componentType":5123,"count":2898,"type":"SCALAR"},{"bufferView":0,"byteOffset":1368240,"componentType":5126,"count":15913,"type":"VEC3","min":[-0.100390002,-0.0290300008,-0.0289699994],"max":[-0.00461000018,0.0290300008,0.02905]},{"bufferView":1,"byteOffset":1368240,"componentType":5126,"count":15913,"type":"VEC3"},{"bufferView":2,"byteOffset":1108764,"componentType":5123,"count":86421,"type":"SCALAR"},{"bufferView":0,"byteOffset":1559196,"componentType":5126,"count":111,"type":"VEC3","min":[-0.0799899995,-0.01523,-0.0152500002],"max":[-0.0250100009,0.01523,0.0152500002]},{"bufferView":1,"byteOffset":1559196,"componentType":5126,"count":111,"type":"VEC3"},{"bufferView":2,"byteOffset":1281606,"componentType":5123,"count":333,"type":"SCALAR"},{"bufferView":0,"byteOffset":1560528,"componentType":5126,"count":134,"type":"VEC3","min":[-0.0799899995,-0.0290300008,-0.0289699994],"max":[-0.0250100009,0.0290300008,0.02905]},{"bufferView":1,"byteOffset":1560528,"componentType":5126,"count":134,"type":"VEC3"},{"bufferView":2,"byteOffset":1282272,"componentType":5123,"count":402,"type":"SCALAR"},{"bufferView":0,"byteOffset":1562136,"componentType":5126,"count":47610,"type":"VEC3","min":[0.00150999997,-0.0621099994,-0.0621099994],"max":[0.0309900008,0.0621099994,0.0621099994]},{"bufferView":1,"byteOffset":1562136,"componentType":5126,"count":47610,"type":"VEC3"},{"bufferView":2,"byteOffset":1283076,"componentType":5123,"count":243642,"type":"SCALAR"},{"bufferView":0,"byteOffset":2133456,"componentType":5126,"count":12028,"type":"VEC3","min":[0.0027699999,-0.0129000004,-0.0137099996],"max":[0.00922999997,0.0140000004,0.0137099996]},{"bufferView":1,"byteOffset":2133456,"componentType":5126,"count":12028,"type":"VEC3"},{"bufferView":2,"byteOffset":1770360,"componentType":5123,"count":49920,"type":"SCALAR"},{"bufferView":0,"byteOffset":2277792,"componentType":5126,"count":6244,"type":"VEC3","min":[0.0103900004,-0.01382,-0.0138100004],"max":[0.0109900003,0.01382,0.0138299996]},{"bufferView":1,"byteOffset":2277792,"componentType":5126,"count":6244,"type":"VEC3"},{"bufferView":2,"byteOffset":1870200,"componentType":5123,"count":31734,"type":"SCALAR"},{"bufferView":0,"byteOffset":2352720,"componentType":5126,"count":4053,"type":"VEC3","min":[0.00101000001,-0.00910000037,-0.00910000037],"max":[0.0109900003,0.00910000037,0.00910000037]},{"bufferView":1,"byteOffset":2352720,"componentType":5126,"count":4053,"type":"VEC3"},{"bufferView":2,"byteOffset":1933668,"componentType":5123,"count":17412,"type":"SCALAR"},{"bufferView":0,"byteOffset":2401356,"componentType":5126,"count":4512,"type":"VEC3","min":[0.00101000001,-0.0159799997,-0.0160000008],"max":[0.0109900003,0.0159799997,0.0160000008]},{"bufferView":1,"byteOffset":2401356,"componentType":5126,"count":4512,"type":"VEC3"},{"bufferView":2,"byteOffset":1968492,"componentType":5123,"count":22776,"type":"SCALAR"},{"bufferView":0,"byteOffset":2455500,"componentType":5126,"count":7075,"type":"VEC3","min":[0.00101000001,-0.01382,-0.0138100004],"max":[0.00161000004,0.01382,0.0138299996]},{"bufferView":1,"byteOffset":2455500,"componentType":5126,"count":7075,"type":"VEC3"},{"bufferView":2,"byteOffset":2014044,"componentType":5123,"count":33828,"type":"SCALAR"},{"bufferView":0,"byteOffset":2540400,"componentType":5126,"count":4128,"type":"VEC3","min":[-0.147,-0.0599699989,-0.0599699989],"max":[0.0130000003,0.0599500015,0.0599699989]},{"bufferView":1,"byteOffset":2540400,"componentType":5126,"count":4128,"type":"VEC3"},{"bufferView":2,"byteOffset":2081700,"componentType":5123,"count":12552,"type":"SCALAR"},{"bufferView":0,"byteOffset":2589936,"componentType":5126,"count":806,"type":"VEC3","min":[-0.147,-0.0599699989,-0.0599000007],"max":[0.0130000003,0.0599500015,0.0599699989]},{"bufferView":1,"byteOffset":2589936,"componentType":5126,"count":806,"type":"VEC3"},{"bufferView":2,"byteOffset":2106804,"componentType":5123,"count":2382,"type":"SCALAR"},{"bufferView":0,"byteOffset":2599608,"componentType":5126,"count":13652,"type":"VEC3","min":[-0.117899999,-0.0754000023,-0.0780000016],"max":[-0.0278999992,-0.0468299985,0.0780000016]},{"bufferView":1,"byteOffset":2599608,"componentType":5126,"count":13652,"type":"VEC3"},{"bufferView":2,"byteOffset":2111568,"componentType":5123,"count":71424,"type":"SCALAR"},{"bufferView":0,"byteOffset":2763432,"componentType":5126,"count":6834,"type":"VEC3","min":[-0.12540926,0.0499134362,-0.0343105532],"max":[-0.00941925962,0.105597138,0.0326504707]},{"bufferView":1,"byteOffset":2763432,"componentType":5126,"count":6834,"type":"VEC3"},{"bufferView":2,"byteOffset":2254416,"componentType":5123,"count":35562,"type":"SCALAR"}],"materials":[{"pbrMetallicRoughness":{"baseColorFactor":[0.650980413,0.619607866,0.588235319,1],"metallicFactor":0},"doubleSided":true},{"pbrMetallicRoughness":{"baseColorFactor":[0.698039234,0.698039234,0.698039234,1],"metallicFactor":0},"doubleSided":true},{"pbrMetallicRoughness":{"baseColorFactor":[0.890196085,0.913725495,0.929411769,1],"metallicFactor":0},"doubleSided":true},{"pbrMetallicRoughness":{"baseColorFactor":[0.749019623,0.749019623,0.749019623,1],"metallicFactor":0},"doubleSided":true},{"pbrMetallicRoughness":{"baseColorFactor":[1,1,0,1],"metallicFactor":0},"doubleSided":true},{"pbrMetallicRoughness":{"baseColorFactor":[0.501960814,0.501960814,0.501960814,1],"metallicFactor":0},"doubleSided":true},{"pbrMetallicRoughness":{"baseColorFactor":[0.988235295,0.737254918,0.513725519,1],"metallicFactor":0},"doubleSided":true},{"pbrMetallicRoughness":{"baseColorFactor":[0.752941191,0.752941191,0.752941191,1],"metallicFactor":0},"doubleSided":true},{"pbrMetallicRoughness":{"baseColorFactor":[0.866666675,0.909803927,1,1],"metallicFactor":0},"doubleSided":true},{"pbrMetallicRoughness":{"metallicFactor":0},"doubleSided":true},{"pbrMetallicRoughness":{"baseColorFactor":[0.792156875,0.819607854,0.933333337,1],"metallicFactor":0},"doubleSided":true},{"pbrMetallicRoughness":{"baseColorFactor":[0,0,0,1],"metallicFactor":0},"doubleSided":true}],"meshes":[{"primitives":[{"attributes":{"POSITION":0,"NORMAL":1},"mode":4,"indices":2,"material":0}]},{"primitives":[{"attributes":{"POSITION":3,"NORMAL":4},"mode":4,"indices":5,"material":1}]},{"primitives":[{"attributes":{"POSITION":6,"NORMAL":7},"mode":4,"indices":8,"material":2}]},{"primitives":[{"attributes":{"POSITION":9,"NORMAL":10},"mode":4,"indices":11,"material":3}]},{"primitives":[{"attributes":{"POSITION":12,"NORMAL":13},"mode":4,"indices":14,"material":4}]},{"primitives":[{"attributes":{"POSITION":15,"NORMAL":16},"mode":4,"indices":17,"material":3}]},{"primitives":[{"attributes":{"POSITION":18,"NORMAL":19},"mode":4,"indices":20,"material":3}]},{"primitives":[{"attributes":{"POSITION":21,"NORMAL":22},"mode":4,"indices":23,"material":4}]},{"primitives":[{"attributes":{"POSITION":24,"NORMAL":25},"mode":4,"indices":26,"material":5},{"attributes":{"POSITION":27,"NORMAL":28},"mode":4,"indices":29,"material":6},{"attributes":{"POSITION":30,"NORMAL":31},"mode":4,"indices":32,"material":7}]},{"primitives":[{"attributes":{"POSITION":33,"NORMAL":34},"mode":4,"indices":35,"material":8},{"attributes":{"POSITION":36,"NORMAL":37},"mode":4,"indices":38,"material":5},{"attributes":{"POSITION":39,"NORMAL":40},"mode":4,"indices":41,"material":9}]},{"primitives":[{"attributes":{"POSITION":42,"NORMAL":43},"mode":4,"indices":44,"material":10}]},{"primitives":[{"attributes":{"POSITION":45,"NORMAL":46},"mode":4,"indices":47,"material":3}]},{"primitives":[{"attributes":{"POSITION":48,"NORMAL":49},"mode":4,"indices":50,"material":4}]},{"primitives":[{"attributes":{"POSITION":51,"NORMAL":52},"mode":4,"indices":53,"material":3}]},{"primitives":[{"attributes":{"POSITION":54,"NORMAL":55},"mode":4,"indices":56,"material":3}]},{"primitives":[{"attributes":{"POSITION":57,"NORMAL":58},"mode":4,"indices":59,"material":4}]},{"primitives":[{"attributes":{"POSITION":60,"NORMAL":61},"mode":4,"indices":62,"material":11},{"attributes":{"POSITION":63,"NORMAL":64},"mode":4,"indices":65,"material":9}]},{"primitives":[{"attributes":{"POSITION":66,"NORMAL":67},"mode":4,"indices":68,"material":11}]},{"primitives":[{"attributes":{"POSITION":69,"NORMAL":70},"mode":4,"indices":71,"material":11}]}],"nodes":[{"mesh":0},{"mesh":1},{"mesh":2},{"mesh":3},{"mesh":4},{"mesh":5},{"mesh":6},{"mesh":7},{"mesh":8},{"mesh":9},{"mesh":10},{"mesh":11},{"mesh":12},{"mesh":13},{"mesh":14},{"mesh":15},{"mesh":16},{"mesh":17},{"mesh":18},{"name":"10008492147swp000","children":[0],"extras":{"Name":"10008492147swp000","FullName":"10008492147swp000<1>","ZGRUPO_FAMILIA_DOCUMENTO_01":"00004","ZFAMILIA_DOCUMENTO_01":"00142","ZLAB_ESC":"EG2","LABORATORY":"EG2","Description":"","DRAWING-DRAW-LABORATORY":"EG2","SAPName":"0000000000000010008492147","SAPTyp":"SWP","SAPPart":"000","SAPVersion":"06","SAPChType":"View","SAPRefDate":"20220513104357","SAPStatus":"","SAPChCount":"-1","SAPModified":" ","PDM_DOC_NUM":"311891"}},{"name":"10008772753swp000","children":[1],"extras":{"Name":"10008772753swp000","FullName":"10008772753swp000<1>","ZGRUPO_FAMILIA_DOCUMENTO_01":"00008","ZFAMILIA_DOCUMENTO_01":"00221","ZLAB_ESC":"EG5","SAPName":"0000000000000010008772753","SAPTyp":"SWP","SAPPart":"000","SAPVersion":"01","SAPChType":"View","SAPRefDate":"20220418202153","SAPModified":" ","SAPStatus":"","SAPChCount":"-1"}},{"name":"10008411710swp000","children":[2],"extras":{"Name":"10008411710swp000","FullName":"10008411710swp000<1>","ZLAB_ESC":"EG1","ZGRUPO_FAMILIA_DOCUMENTO_01":"00003","ZFAMILIA_DOCUMENTO_01":"00103","Description":"","SAPName":"0000000000000010008411710","SAPTyp":"SWP","SAPPart":"000","SAPVersion":"04","SAPChType":"View","SAPRefDate":"20220525133515","SAPStatus":"","SAPChCount":"-1","SAPModified":" "}},{"name":"6201_0","children":[3],"extras":{"Name":"6201","FullName":"6201<2>","ZGRUPO_FAMILIA_DOCUMENTO_01":"00036","ZFAMILIA_DOCUMENTO_01":"00776","ZLAB_ESC":"EG1","SAPModified":"X"}},{"name":"6201_1","children":[4]},{"name":"6201_2","children":[5]},{"name":"6201_3","children":[6]},{"name":"6201_4","children":[7]},{"name":"6003.5083","children":[8],"extras":{"Name":"6003.5083","FullName":"6003.5083<1>","ZGRUPO_FAMILIA_DOCUMENTO_01":"00016","ZFAMILIA_DOCUMENTO_01":"00991","ZLAB_ESC":"EG0","ZDOCUMENTO_PARCIAL_01":"000","SAPName":"0000000000000010001866352","SAPTyp":"SWP","SAPPart":"000","SAPVersion":"01","SAPChType":"Modify","SAPStatus":"","SAPRefDate":"20120814172526","SAPModified":"X"}},{"name":"26287 - 10002552652","children":[9],"extras":{"Name":"26287 - 10002552652","FullName":"26287 - 10002552652<1>","ZDOCUMENTO_PARCIAL_01":"000","ZLAB_ESC":"EG2","ZGRUPO_FAMILIA_DOCUMENTO_01":"00013","ZFAMILIA_DOCUMENTO_01":"00353","SAPName":"0000000000000010002552652","SAPTyp":"SWP","SAPPart":"000","SAPVersion":"00","SAPChType":"View","SAPStatus":"","SAPRefDate":"20131028181037","SAPModified":"X"}},{"name":"10009043723swp000","children":[10],"extras":{"Name":"10009043723swp000","FullName":"10009043723swp000<1>","ZLAB_ESC":"EG2","LABORATORY":"EG2","DRAWING-DRAW-LABORATORY":"EG2","SAPName":"0000000000000010009043723","SAPTyp":"SWP","SAPPart":"000","SAPVersion":"01","SAPChType":"View","SAPRefDate":"20220419193221","SAPStatus":"","SAPChCount":"-1","SAPModified":"X"}},{"name":"6201_0","children":[11],"extras":{"Name":"6201","FullName":"6201<1>","ZGRUPO_FAMILIA_DOCUMENTO_01":"00036","ZFAMILIA_DOCUMENTO_01":"00776","ZLAB_ESC":"EG1","SAPModified":"X"}},{"name":"6201_1","children":[12]},{"name":"6201_2","children":[13]},{"name":"6201_3","children":[14]},{"name":"6201_4","children":[15]},{"name":"10008754510swp000","children":[16],"extras":{"Name":"10008754510swp000","FullName":"10008754510swp000<1>","ZGRUPO_FAMILIA_DOCUMENTO_01":"00001","ZFAMILIA_DOCUMENTO_01":"00019","ZLAB_ESC":"EG2","LABORATORY":"EG2","DRAWING-DRAW-LABORATORY":"EG2","SAPName":"0000000000000010008754510","SAPTyp":"SWP","SAPPart":"000","SAPVersion":"04","SAPChType":"View","SAPRefDate":"20220705113026","SAPStatus":"","SAPChCount":"-1","SAPModified":"X","PDM_DOC_NUM":"309818"}},{"name":"10000529207swp00000","children":[17],"extras":{"Name":"10000529207swp00000","FullName":"10000529207swp00000<1>","ZGRUPO_FAMILIA_DOCUMENTO_01":"00060","ZFAMILIA_DOCUMENTO_01":"01031","ZLAB_ESC":"EG5","ZDOCUMENTO_PARCIAL_01":"000","SAPChCount":"-1","Description":"","SAPName":"0000000000000010000529207","SAPTyp":"SWP","SAPPart":"000","SAPVersion":"09","SAPChType":"View","SAPStatus":"","SAPRefDate":"20180904104704","SAPModified":"X","PDM_DOC_NUM":"250319"}},{"name":"10006027145swp000","children":[18],"extras":{"Name":"10006027145swp000","FullName":"10006027145swp000<1>","ZLAB_ESC":"EG2","LABORATORY":"EG2","DRAWING-DRAW-LABORATORY":"EG2","SAPName":"0000000000000010006027145","SAPTyp":"SWP","SAPPart":"000","SAPVersion":"00","SAPChType":"View","SAPStatus":"","SAPRefDate":"20180903194914","SAPChCount":"-1","SAPModified":"X"}}],"scenes":[{"nodes":[19,20,21,22,23,24,25,26,27,28,29,30,31,32,33,34,35,36,37]}]}