{"buffers":[{"uri":"MODELO3.bin","byteLength":5246028}],"asset":{"version":"2.0","generator":"gltfpack 0.16"},"bufferViews":[{"buffer":0,"byteOffset":0,"byteLength":1849740,"byteStride":12,"target":34962},{"buffer":0,"byteOffset":1849740,"byteLength":1849740,"byteStride":12,"target":34962},{"buffer":0,"byteOffset":3699480,"byteLength":1546548,"target":34963}],"accessors":[{"bufferView":0,"byteOffset":0,"componentType":5126,"count":1110,"type":"VEC3","min":[-0.0886999965,-0.0060800002,-0.0060800002],"max":[0.0449899994,0.0060800002,0.0060800002]},{"bufferView":1,"byteOffset":0,"componentType":5126,"count":1110,"type":"VEC3"},{"bufferView":2,"byteOffset":0,"componentType":5123,"count":3888,"type":"SCALAR"},{"bufferView":0,"byteOffset":13320,"componentType":5126,"count":471,"type":"VEC3","min":[-0.0644500032,-0.0504624769,0.0425018929],"max":[-0.0143999998,-0.0425102785,0.0504624769]},{"bufferView":1,"byteOffset":13320,"componentType":5126,"count":471,"type":"VEC3"},{"bufferView":2,"byteOffset":7776,"componentType":5123,"count":2412,"type":"SCALAR"},{"bufferView":0,"byteOffset":18972,"componentType":5126,"count":6004,"type":"VEC3","min":[0.0276100002,-0.0274876487,-0.0274876487],"max":[0.0450000018,0.0274876487,0.0274876487]},{"bufferView":1,"byteOffset":18972,"componentType":5126,"count":6004,"type":"VEC3"},{"bufferView":2,"byteOffset":12600,"componentType":5123,"count":35244,"type":"SCALAR"},{"bufferView":0,"byteOffset":91020,"componentType":5126,"count":7043,"type":"VEC3","min":[-0.0837000012,-0.0549999997,-0.0549999997],"max":[0.00529999984,0.0549999997,0.0549999997]},{"bufferView":1,"byteOffset":91020,"componentType":5126,"count":7043,"type":"VEC3"},{"bufferView":2,"byteOffset":83088,"componentType":5123,"count":23196,"type":"SCALAR"},{"bufferView":0,"byteOffset":175536,"componentType":5126,"count":3820,"type":"VEC3","min":[-0.0877000019,-0.01382,-0.0137900002],"max":[-0.0870999992,0.01382,0.0138299996]},{"bufferView":1,"byteOffset":175536,"componentType":5126,"count":3820,"type":"VEC3"},{"bufferView":2,"byteOffset":129480,"componentType":5123,"count":19242,"type":"SCALAR"},{"bufferView":0,"byteOffset":221376,"componentType":5126,"count":4654,"type":"VEC3","min":[-0.0859099999,-0.0128899999,-0.0137200002],"max":[-0.0794899985,0.0139899999,0.0137200002]},{"bufferView":1,"byteOffset":221376,"componentType":5126,"count":4654,"type":"VEC3"},{"bufferView":2,"byteOffset":167964,"componentType":5123,"count":18330,"type":"SCALAR"},{"bufferView":0,"byteOffset":277224,"componentType":5126,"count":1957,"type":"VEC3","min":[-0.0877000019,-0.00906999968,-0.00910000037],"max":[-0.0776999965,0.00906999968,0.00910000037]},{"bufferView":1,"byteOffset":277224,"componentType":5126,"count":1957,"type":"VEC3"},{"bufferView":2,"byteOffset":204624,"componentType":5123,"count":7662,"type":"SCALAR"},{"bufferView":0,"byteOffset":300708,"componentType":5126,"count":1856,"type":"VEC3","min":[-0.0877000019,-0.0160000008,-0.0160000008],"max":[-0.0776999965,0.0160000008,0.0160000008]},{"bufferView":1,"byteOffset":300708,"componentType":5126,"count":1856,"type":"VEC3"},{"bufferView":2,"byteOffset":219948,"componentType":5123,"count":9312,"type":"SCALAR"},{"bufferView":0,"byteOffset":322980,"componentType":5126,"count":3674,"type":"VEC3","min":[-0.0782999992,-0.01382,-0.0137900002],"max":[-0.0776999965,0.01382,0.0138299996]},{"bufferView":1,"byteOffset":322980,"componentType":5126,"count":3674,"type":"VEC3"},{"bufferView":2,"byteOffset":238572,"componentType":5123,"count":18810,"type":"SCALAR"},{"bufferView":0,"byteOffset":367068,"componentType":5126,"count":24,"type":"VEC3","min":[-0.0469500013,-0.0192399994,-0.0551000014],"max":[-0.0314499997,0.0192499999,-0.0549999997]},{"bufferView":1,"byteOffset":367068,"componentType":5126,"count":24,"type":"VEC3"},{"bufferView":2,"byteOffset":276192,"componentType":5123,"count":36,"type":"SCALAR"},{"bufferView":0,"byteOffset":367356,"componentType":5126,"count":40182,"type":"VEC3","min":[-0.0913999975,-0.0542845875,-0.054991696],"max":[-0.0529100001,0.0542421602,0.0542845875]},{"bufferView":1,"byteOffset":367356,"componentType":5126,"count":40182,"type":"VEC3"},{"bufferView":2,"byteOffset":276264,"componentType":5123,"count":220398,"type":"SCALAR"},{"bufferView":0,"byteOffset":849540,"componentType":5126,"count":7338,"type":"VEC3","min":[5.20417043e-18,-0.0180170778,-0.0180170778],"max":[0.0109999999,0.0180170778,0.0180170778]},{"bufferView":1,"byteOffset":849540,"componentType":5126,"count":7338,"type":"VEC3"},{"bufferView":2,"byteOffset":717060,"componentType":5123,"count":35478,"type":"SCALAR"},{"bufferView":0,"byteOffset":937596,"componentType":5126,"count":471,"type":"VEC3","min":[-0.0644500032,0.0425018929,0.0425102785],"max":[-0.0143999998,0.0504624769,0.0504624769]},{"bufferView":1,"byteOffset":937596,"componentType":5126,"count":471,"type":"VEC3"},{"bufferView":2,"byteOffset":788016,"componentType":5123,"count":2412,"type":"SCALAR"},{"bufferView":0,"byteOffset":943248,"componentType":5126,"count":216,"type":"VEC3","min":[-0.0321500003,-0.043290697,-0.0675422698],"max":[-0.0221999995,-0.0275706984,-0.0595422722]},{"bufferView":1,"byteOffset":943248,"componentType":5126,"count":216,"type":"VEC3"},{"bufferView":2,"byteOffset":792840,"componentType":5123,"count":588,"type":"SCALAR"},{"bufferView":0,"byteOffset":945840,"componentType":5126,"count":7338,"type":"VEC3","min":[-0.0894000009,-0.0180170666,-0.0180170666],"max":[-0.0784000009,0.0180170666,0.0180170666]},{"bufferView":1,"byteOffset":945840,"componentType":5126,"count":7338,"type":"VEC3"},{"bufferView":2,"byteOffset":794016,"componentType":5123,"count":35478,"type":"SCALAR"},{"bufferView":0,"byteOffset":1033896,"componentType":5126,"count":39226,"type":"VEC3","min":[-0.0256999992,-0.0537,-0.0900000036],"max":[0.0130000003,0.0537,0.0900000036]},{"bufferView":1,"byteOffset":1033896,"componentType":5126,"count":39226,"type":"VEC3"},{"bufferView":2,"byteOffset":864972,"componentType":5123,"count":213528,"type":"SCALAR"},{"bufferView":0,"byteOffset":1504608,"componentType":5126,"count":471,"type":"VEC3","min":[-0.0644500032,-0.0504624769,-0.0504624769],"max":[-0.0143999998,-0.0425018929,-0.0425102785]},{"bufferView":1,"byteOffset":1504608,"componentType":5126,"count":471,"type":"VEC3"},{"bufferView":2,"byteOffset":1292028,"componentType":5123,"count":2412,"type":"SCALAR"},{"bufferView":0,"byteOffset":1510260,"componentType":5126,"count":3820,"type":"VEC3","min":[0.00939999986,-0.0137986327,-0.0138186337],"max":[0.00999999978,0.0138187567,0.0138108078]},{"bufferView":1,"byteOffset":1510260,"componentType":5126,"count":3820,"type":"VEC3"},{"bufferView":2,"byteOffset":1296852,"componentType":5123,"count":19242,"type":"SCALAR"},{"bufferView":0,"byteOffset":1556100,"componentType":5126,"count":4654,"type":"VEC3","min":[0.00179000001,-0.0136083961,-0.0139780194],"max":[0.00820999965,0.0137998499,0.013068351]},{"bufferView":1,"byteOffset":1556100,"componentType":5126,"count":4654,"type":"VEC3"},{"bufferView":2,"byteOffset":1335336,"componentType":5123,"count":18330,"type":"SCALAR"},{"bufferView":0,"byteOffset":1611948,"componentType":5126,"count":1957,"type":"VEC3","min":[-2.25514052e-17,-0.00908608548,-0.00909307506],"max":[0.00999999978,0.00908608548,0.00909307506]},{"bufferView":1,"byteOffset":1611948,"componentType":5126,"count":1957,"type":"VEC3"},{"bufferView":2,"byteOffset":1371996,"componentType":5123,"count":7662,"type":"SCALAR"},{"bufferView":0,"byteOffset":1635432,"componentType":5126,"count":1856,"type":"VEC3","min":[-2.77555756e-17,-0.0159937795,-0.0159937795],"max":[0.00999999978,0.0159937795,0.0159937795]},{"bufferView":1,"byteOffset":1635432,"componentType":5126,"count":1856,"type":"VEC3"},{"bufferView":2,"byteOffset":1387320,"componentType":5123,"count":9312,"type":"SCALAR"},{"bufferView":0,"byteOffset":1657704,"componentType":5126,"count":3674,"type":"VEC3","min":[-2.60208521e-17,-0.0137986327,-0.0138186337],"max":[0.000600000028,0.0138187567,0.0138108078]},{"bufferView":1,"byteOffset":1657704,"componentType":5126,"count":3674,"type":"VEC3"},{"bufferView":2,"byteOffset":1405944,"componentType":5123,"count":18810,"type":"SCALAR"},{"bufferView":0,"byteOffset":1701792,"componentType":5126,"count":9359,"type":"VEC3","min":[-0.0736899972,-0.0346700288,-0.0346700288],"max":[-0.00471000001,0.0346700288,0.0346700288]},{"bufferView":1,"byteOffset":1701792,"componentType":5126,"count":9359,"type":"VEC3"},{"bufferView":2,"byteOffset":1443564,"componentType":5123,"count":41004,"type":"SCALAR"},{"bufferView":0,"byteOffset":1814100,"componentType":5126,"count":471,"type":"VEC3","min":[-0.0644500032,0.0425102785,-0.0504624769],"max":[-0.0143999998,0.0504624769,-0.0425018929]},{"bufferView":1,"byteOffset":1814100,"componentType":5126,"count":471,"type":"VEC3"},{"bufferView":2,"byteOffset":1525572,"componentType":5123,"count":2412,"type":"SCALAR"},{"bufferView":0,"byteOffset":1819752,"componentType":5126,"count":856,"type":"VEC3","min":[-0.0855000019,-0.00402839947,-0.155499995],"max":[-0.0736000016,0.0220716,-0.126000002]},{"bufferView":1,"byteOffset":1819752,"componentType":5126,"count":856,"type":"VEC3"},{"bufferView":2,"byteOffset":1530396,"componentType":5123,"count":1788,"type":"SCALAR"},{"bufferView":0,"byteOffset":1830024,"componentType":5126,"count":194,"type":"VEC3","min":[-0.0798728839,0.00154178694,-0.130999997],"max":[-0.0773728862,0.00405178685,-0.0410000011]},{"bufferView":1,"byteOffset":1830024,"componentType":5126,"count":194,"type":"VEC3"},{"bufferView":2,"byteOffset":1533972,"componentType":5123,"count":576,"type":"SCALAR"},{"bufferView":0,"byteOffset":1832352,"componentType":5126,"count":194,"type":"VEC3","min":[-0.0798728839,0.00757178711,-0.138999999],"max":[-0.0773728862,0.0100717871,-0.0410000011]},{"bufferView":1,"byteOffset":1832352,"componentType":5126,"count":194,"type":"VEC3"},{"bufferView":2,"byteOffset":1535124,"componentType":5123,"count":576,"type":"SCALAR"},{"bufferView":0,"byteOffset":1834680,"componentType":5126,"count":194,"type":"VEC3","min":[-0.0798728839,0.0135917868,-0.138999999],"max":[-0.0773728862,0.0161017869,-0.0410000011]},{"bufferView":1,"byteOffset":1834680,"componentType":5126,"count":194,"type":"VEC3"},{"bufferView":2,"byteOffset":1536276,"componentType":5123,"count":576,"type":"SCALAR"},{"bufferView":0,"byteOffset":1837008,"componentType":5126,"count":1013,"type":"VEC3","min":[-0.0812000036,0.018721601,-0.145280004],"max":[-0.070100002,0.041721601,-0.126719996]},{"bufferView":1,"byteOffset":1837008,"componentType":5126,"count":1013,"type":"VEC3"},{"bufferView":2,"byteOffset":1537428,"componentType":5123,"count":4464,"type":"SCALAR"},{"bufferView":0,"byteOffset":1849164,"componentType":5126,"count":48,"type":"VEC3","min":[-0.0811899975,3.16003461e-05,-0.119000003],"max":[-0.0762000009,0.0180216003,-0.0590000004]},{"bufferView":1,"byteOffset":1849164,"componentType":5126,"count":48,"type":"VEC3"},{"bufferView":2,"byteOffset":1546356,"componentType":5123,"count":96,"type":"SCALAR"}],"materials":[{"pbrMetallicRoughness":{"baseColorFactor":[0.647058845,0.619607866,0.588235319,1],"metallicFactor":0},"doubleSided":true},{"pbrMetallicRoughness":{"baseColorFactor":[0.650980413,0.619607866,0.588235319,1],"metallicFactor":0},"doubleSided":true},{"pbrMetallicRoughness":{"baseColorFactor":[0.866666675,0.909803927,1,1],"metallicFactor":0},"doubleSided":true},{"pbrMetallicRoughness":{"baseColorFactor":[0.909803927,0.443137258,0.0313725509,1],"metallicFactor":0},"doubleSided":true},{"pbrMetallicRoughness":{"baseColorFactor":[1,1,0,1],"metallicFactor":0},"doubleSided":true},{"pbrMetallicRoughness":{"baseColorFactor":[0.749019623,0.749019623,0.749019623,1],"metallicFactor":0},"doubleSided":true},{"pbrMetallicRoughness":{"baseColorFactor":[0.792156875,0.819607854,0.933333337,1],"metallicFactor":0},"doubleSided":true},{"pbrMetallicRoughness":{"baseColorFactor":[0.294117659,0.294117659,0.294117659,1],"metallicFactor":0},"doubleSided":true},{"pbrMetallicRoughness":{"baseColorFactor":[0.941176474,0.674509823,0.117647059,1],"metallicFactor":0},"doubleSided":true},{"pbrMetallicRoughness":{"metallicFactor":0},"doubleSided":true},{"pbrMetallicRoughness":{"baseColorFactor":[0.662745118,0.576470613,0.278431386,1],"metallicFactor":0},"doubleSided":true}],"meshes":[{"primitives":[{"attributes":{"POSITION":0,"NORMAL":1},"mode":4,"indices":2,"material":0}]},{"primitives":[{"attributes":{"POSITION":3,"NORMAL":4},"mode":4,"indices":5,"material":1}]},{"primitives":[{"attributes":{"POSITION":6,"NORMAL":7},"mode":4,"indices":8,"material":2}]},{"primitives":[{"attributes":{"POSITION":9,"NORMAL":10},"mode":4,"indices":11,"material":3}]},{"primitives":[{"attributes":{"POSITION":12,"NORMAL":13},"mode":4,"indices":14,"material":4}]},{"primitives":[{"attributes":{"POSITION":15,"NORMAL":16},"mode":4,"indices":17,"material":5}]},{"primitives":[{"attributes":{"POSITION":18,"NORMAL":19},"mode":4,"indices":20,"material":5}]},{"primitives":[{"attributes":{"POSITION":21,"NORMAL":22},"mode":4,"indices":23,"material":5}]},{"primitives":[{"attributes":{"POSITION":24,"NORMAL":25},"mode":4,"indices":26,"material":4}]},{"primitives":[{"attributes":{"POSITION":27,"NORMAL":28},"mode":4,"indices":29,"material":6}]},{"primitives":[{"attributes":{"POSITION":30,"NORMAL":31},"mode":4,"indices":32,"material":6}]},{"primitives":[{"attributes":{"POSITION":33,"NORMAL":34},"mode":4,"indices":35,"material":7}]},{"primitives":[{"attributes":{"POSITION":36,"NORMAL":37},"mode":4,"indices":38,"material":1}]},{"primitives":[{"attributes":{"POSITION":39,"NORMAL":40},"mode":4,"indices":41,"material":8}]},{"primitives":[{"attributes":{"POSITION":42,"NORMAL":43},"mode":4,"indices":44,"material":7}]},{"primitives":[{"attributes":{"POSITION":45,"NORMAL":46},"mode":4,"indices":47,"material":6}]},{"primitives":[{"attributes":{"POSITION":48,"NORMAL":49},"mode":4,"indices":50,"material":1}]},{"primitives":[{"attributes":{"POSITION":51,"NORMAL":52},"mode":4,"indices":53,"material":4}]},{"primitives":[{"attributes":{"POSITION":54,"NORMAL":55},"mode":4,"indices":56,"material":5}]},{"primitives":[{"attributes":{"POSITION":57,"NORMAL":58},"mode":4,"indices":59,"material":5}]},{"primitives":[{"attributes":{"POSITION":60,"NORMAL":61},"mode":4,"indices":62,"material":5}]},{"primitives":[{"attributes":{"POSITION":63,"NORMAL":64},"mode":4,"indices":65,"material":4}]},{"primitives":[{"attributes":{"POSITION":66,"NORMAL":67},"mode":4,"indices":68,"material":2}]},{"primitives":[{"attributes":{"POSITION":69,"NORMAL":70},"mode":4,"indices":71,"material":1}]},{"primitives":[{"attributes":{"POSITION":72,"NORMAL":73},"mode":4,"indices":74,"material":9}]},{"primitives":[{"attributes":{"POSITION":75,"NORMAL":76},"mode":4,"indices":77,"material":9}]},{"primitives":[{"attributes":{"POSITION":78,"NORMAL":79},"mode":4,"indices":80,"material":9}]},{"primitives":[{"attributes":{"POSITION":81,"NORMAL":82},"mode":4,"indices":83,"material":9}]},{"primitives":[{"attributes":{"POSITION":84,"NORMAL":85},"mode":4,"indices":86,"material":10}]},{"primitives":[{"attributes":{"POSITION":87,"NORMAL":88},"mode":4,"indices":89,"material":6}]}],"nodes":[{"mesh":0},{"mesh":1},{"mesh":2},{"mesh":3},{"mesh":4},{"mesh":5},{"mesh":6},{"mesh":7},{"mesh":8},{"mesh":9},{"mesh":10},{"mesh":11},{"mesh":12},{"mesh":13},{"mesh":14},{"mesh":15},{"mesh":16},{"mesh":17},{"mesh":18},{"mesh":19},{"mesh":20},{"mesh":21},{"mesh":22},{"mesh":23},{"mesh":24},{"mesh":25},{"mesh":26},{"mesh":27},{"mesh":28},{"mesh":29},{"name":"10002893233swp000","children":[0],"extras":{"Name":"10002893233swp000","FullName":"10002893233swp000<1>","ZDOCUMENTO_PARCIAL_01":"","ZLAB_ESC":"EG3","ZGRUPO_FAMILIA_DOCUMENTO_01":"00004","ZFAMILIA_DOCUMENTO_01":"00142","SAPChCount":"-1","SAPName":"0000000000000010002893233","SAPTyp":"SWP","SAPPart":"000","SAPVersion":"07","SAPChType":"View","SAPStatus":"","SAPRefDate":"20170314201129","SAPModified":" ","Material":"","Peso":"","Peso Espec.":"","Volume":"","1ยบ Feito":"","Substitui":"","Tol. Geral":"","Tol. Ang.":"","Data Desenhado":"","Reference":""}},{"name":"10001819917swp000","children":[1],"extras":{"Name":"10001819917swp000","FullName":"10001819917swp000<2>","ZDOCUMENTO_PARCIAL_01":"000","ZLAB_ESC":"EG9","ZGRUPO_FAMILIA_DOCUMENTO_01":"00035","ZFAMILIA_DOCUMENTO_01":"00543","SAPChCount":"-1","SAPName":"0000000000000010001819917","SAPTyp":"SWP","SAPPart":"000","SAPVersion":"08","SAPChType":"View","SAPStatus":"","SAPRefDate":"20170323172251","SAPModified":" "}},{"name":"10003175828swp000","children":[2],"extras":{"Name":"10003175828swp000","FullName":"10003175828swp000<1>","ZGRUPO_FAMILIA_DOCUMENTO_01":"20058","ZFAMILIA_DOCUMENTO_01":"20097","ZLAB_ESC":"EG2","ZDOCUMENTO_PARCIAL_01":"","LABORATORY":"EG2","DRAWING-DRAW-LABORATORY":"EG2","SAPName":"0000000000000010003175828","SAPTyp":"SWP","SAPPart":"000","SAPVersion":"03","SAPChType":"View","SAPStatus":"","SAPRefDate":"20170330185259","SAPModified":" ","SAPChCount":"-1"}},{"name":"10003056676swp000","children":[3],"extras":{"Name":"10003056676swp000","FullName":"10003056676swp000<1>","UNIT_OF_MEASURE":" - none -","ZDOCUMENTO_PARCIAL_01":"000","ZLAB_ESC":"EG9","ZGRUPO_FAMILIA_DOCUMENTO_01":"00011","ZFAMILIA_DOCUMENTO_01":"00291","SAPName":"0000000000000010003056676","SAPTyp":"SWP","SAPPart":"000","SAPVersion":"01","SAPChType":"View","SAPStatus":"","SAPRefDate":"20151204091102","SAPChCount":"-1","SAPModified":"X"}},{"name":"10000629570swp000_0","children":[4],"extras":{"Name":"10000629570swp000","FullName":"10000629570swp000<2>","ZGRUPO_FAMILIA_DOCUMENTO_01":"00036","ZFAMILIA_DOCUMENTO_01":"00776","ZLAB_ESC":"EG1","ZDOCUMENTO_PARCIAL_01":"000","SAPName":"0000000000000010000629570","SAPTyp":"SWP","SAPPart":"000","SAPVersion":"00","SAPChType":"View","SAPStatus":"","SAPRefDate":"20090923185343","SAPModified":" "}},{"name":"10000629570swp000_1","children":[5]},{"name":"10000629570swp000_2","children":[6]},{"name":"10000629570swp000_3","children":[7]},{"name":"10000629570swp000_4","children":[8]},{"name":"10005072863swp000","children":[9],"extras":{"Name":"10005072863swp000","FullName":"10005072863swp000<1>","SAPName":"0000000000000010005072863","SAPTyp":"SWP","SAPPart":"000","SAPVersion":"00","SAPChType":"View","SAPStatus":"","SAPRefDate":"20170719124010","SAPModified":" ","SAPChCount":"-1"}},{"name":"10004809861swp000","children":[10],"extras":{"Name":"10004809861swp000","FullName":"10004809861swp000<1>","SAPChCount":"-1","ZLAB_ESC":"EG2","LABORATORY":"EG2","DRAWING-DRAW-LABORATORY":"EG2","SAPName":"0000000000000010004809861","SAPTyp":"SWP","SAPPart":"000","SAPVersion":"00","SAPChType":"View","SAPStatus":"","SAPRefDate":"20170308133745","SAPModified":"X"}},{"name":"10001818955","children":[11],"extras":{"Name":"10001818955","FullName":"10001818955<1>","ZDOCUMENTO_PARCIAL_01":"000","ZLAB_ESC":"EG9","ZGRUPO_FAMILIA_DOCUMENTO_01":"00052","ZFAMILIA_DOCUMENTO_01":"00892","SAPChCount":"-1","SAPName":"0000000000000010001818955","SAPTyp":"SWP","SAPPart":"000","SAPVersion":"10","SAPChType":"View","SAPStatus":"","SAPRefDate":"20180122161322","SAPModified":" "}},{"name":"10001819917swp000","children":[12],"extras":{"Name":"10001819917swp000","FullName":"10001819917swp000<1>","ZDOCUMENTO_PARCIAL_01":"000","ZLAB_ESC":"EG9","ZGRUPO_FAMILIA_DOCUMENTO_01":"00035","ZFAMILIA_DOCUMENTO_01":"00543","SAPChCount":"-1","SAPName":"0000000000000010001819917","SAPTyp":"SWP","SAPPart":"000","SAPVersion":"08","SAPChType":"View","SAPStatus":"","SAPRefDate":"20170323172251","SAPModified":" "}},{"name":"10004865866swp000","children":[13],"extras":{"Name":"10004865866swp000","FullName":"10004865866swp000<1>","SAPName":"0000000000000010004865866","SAPTyp":"SWP","SAPPart":"000","SAPVersion":"00","SAPChType":"View","SAPStatus":"","SAPRefDate":"20170405124052","SAPModified":" ","SAPChCount":"-1","PDM_DOC_NUM":"128119"}},{"name":"10001818955","children":[14],"extras":{"Name":"10001818955","FullName":"10001818955<2>","ZDOCUMENTO_PARCIAL_01":"000","ZLAB_ESC":"EG9","ZGRUPO_FAMILIA_DOCUMENTO_01":"00052","ZFAMILIA_DOCUMENTO_01":"00892","SAPChCount":"-1","SAPName":"0000000000000010001818955","SAPTyp":"SWP","SAPPart":"000","SAPVersion":"10","SAPChType":"View","SAPStatus":"","SAPRefDate":"20180122161322","SAPModified":" "}},{"name":"10002735810swp000","children":[15],"extras":{"Name":"10002735810swp000","FullName":"10002735810swp000<1>","SAPChCount":"-1","SAPName":"0000000000000010002735810","SAPTyp":"SWP","SAPPart":"000","SAPVersion":"16","SAPChType":"View","SAPStatus":"","SAPRefDate":"20170623172742","SAPModified":" "}},{"name":"10001819917swp000","children":[16],"extras":{"Name":"10001819917swp000","FullName":"10001819917swp000<3>","ZDOCUMENTO_PARCIAL_01":"000","ZLAB_ESC":"EG9","ZGRUPO_FAMILIA_DOCUMENTO_01":"00035","ZFAMILIA_DOCUMENTO_01":"00543","SAPChCount":"-1","SAPName":"0000000000000010001819917","SAPTyp":"SWP","SAPPart":"000","SAPVersion":"08","SAPChType":"View","SAPStatus":"","SAPRefDate":"20170323172251","SAPModified":" "}},{"name":"10000629570swp000_0","children":[17],"extras":{"Name":"10000629570swp000","FullName":"10000629570swp000<1>","ZGRUPO_FAMILIA_DOCUMENTO_01":"00036","ZFAMILIA_DOCUMENTO_01":"00776","ZLAB_ESC":"EG1","ZDOCUMENTO_PARCIAL_01":"000","SAPName":"0000000000000010000629570","SAPTyp":"SWP","SAPPart":"000","SAPVersion":"00","SAPChType":"View","SAPStatus":"","SAPRefDate":"20090923185343","SAPModified":" "}},{"name":"10000629570swp000_1","children":[18]},{"name":"10000629570swp000_2","children":[19]},{"name":"10000629570swp000_3","children":[20]},{"name":"10000629570swp000_4","children":[21]},{"name":"10001827052swp00000","children":[22],"extras":{"Name":"10001827052swp00000","FullName":"10001827052swp00000<1>","Description":"","ZDOCUMENTO_PARCIAL_01":"000","ZLAB_ESC":"EG9","ZGRUPO_FAMILIA_DOCUMENTO_01":"00013","ZFAMILIA_DOCUMENTO_01":"01240","SAPName":"0000000000000010001827052","SAPTyp":"SWP","SAPPart":"000","SAPVersion":"05","SAPChType":"View","SAPStatus":"","SAPRefDate":"20140908193529","SAPModified":" "}},{"name":"10001819917swp000","children":[23],"extras":{"Name":"10001819917swp000","FullName":"10001819917swp000<4>","ZDOCUMENTO_PARCIAL_01":"000","ZLAB_ESC":"EG9","ZGRUPO_FAMILIA_DOCUMENTO_01":"00035","ZFAMILIA_DOCUMENTO_01":"00543","SAPChCount":"-1","SAPName":"0000000000000010001819917","SAPTyp":"SWP","SAPPart":"000","SAPVersion":"08","SAPChType":"View","SAPStatus":"","SAPRefDate":"20170323172251","SAPModified":" "}},{"name":"10005072860swp000","children":[24],"extras":{"Name":"10005072860swp000","FullName":"10005072860swp000<1>","SAPName":"0000000000000010005072860","SAPTyp":"SWP","SAPPart":"000","SAPVersion":"00","SAPChType":"View","SAPStatus":"","SAPRefDate":"20170719123823","SAPModified":" ","SAPChCount":"-1"}},{"name":"10005072847swp000_0","children":[25],"extras":{"Name":"10005072847swp000","FullName":"10005072847swp000<1>","SAPName":"0000000000000010005072847","SAPTyp":"SWP","SAPPart":"000","SAPVersion":"00","SAPChType":"View","SAPStatus":"","SAPRefDate":"20170719123822","SAPModified":" ","SAPChCount":"-1"}},{"name":"10005072847swp000_1","children":[26]},{"name":"10005072847swp000_2","children":[27]},{"name":"10005072848swp000","children":[28],"extras":{"Name":"10005072848swp000","FullName":"10005072848swp000<1>","SAPName":"0000000000000010005072848","SAPTyp":"SWP","SAPPart":"000","SAPVersion":"00","SAPChType":"View","SAPStatus":"","SAPRefDate":"20170719123823","SAPModified":" ","SAPChCount":"-1"}},{"name":"10005072841swp000","children":[29],"extras":{"Name":"10005072841swp000","FullName":"10005072841swp000<1>","SAPName":"0000000000000010005072841","SAPTyp":"SWP","SAPPart":"000","SAPVersion":"00","SAPChType":"View","SAPStatus":"","SAPRefDate":"20170719123822","SAPModified":" ","SAPChCount":"-1"}}],"scenes":[{"nodes":[30,31,32,33,34,35,36,37,38,39,40,41,42,43,44,45,46,47,48,49,50,51,52,53,54,55,56,57,58,59]}]}