{"buffers":[{"uri":"MODELO1_WFL.bin","byteLength":8522076}],"asset":{"version":"2.0","generator":"gltfpack 0.16"},"bufferViews":[{"buffer":0,"byteOffset":0,"byteLength":3060720,"byteStride":12,"target":34962},{"buffer":0,"byteOffset":3060720,"byteLength":3060720,"byteStride":12,"target":34962},{"buffer":0,"byteOffset":6121440,"byteLength":2400636,"target":34963}],"accessors":[{"bufferView":0,"byteOffset":0,"componentType":5126,"count":21443,"type":"VEC3","min":[-0.120499998,-0.0737126842,-0.0729359761],"max":[-0.0980200022,0.0746782571,0.0749259591]},{"bufferView":1,"byteOffset":0,"componentType":5126,"count":21443,"type":"VEC3"},{"bufferView":2,"byteOffset":0,"componentType":5123,"count":111006,"type":"SCALAR"},{"bufferView":0,"byteOffset":257316,"componentType":5126,"count":4500,"type":"VEC3","min":[0.0118300002,-0.0176619776,-0.0176619776],"max":[0.0129000004,0.0176619776,0.0176619776]},{"bufferView":1,"byteOffset":257316,"componentType":5126,"count":4500,"type":"VEC3"},{"bufferView":2,"byteOffset":222012,"componentType":5123,"count":21108,"type":"SCALAR"},{"bufferView":0,"byteOffset":311316,"componentType":5126,"count":1646,"type":"VEC3","min":[0.0124700004,-0.0165878274,-0.0165906809],"max":[0.0127499998,0.0165940952,0.0165878274]},{"bufferView":1,"byteOffset":311316,"componentType":5126,"count":1646,"type":"VEC3"},{"bufferView":2,"byteOffset":264228,"componentType":5123,"count":8610,"type":"SCALAR"},{"bufferView":0,"byteOffset":331068,"componentType":5126,"count":1646,"type":"VEC3","min":[0.00124999997,-0.0165878274,-0.0165906809],"max":[0.00153000001,0.0165940952,0.0165878274]},{"bufferView":1,"byteOffset":331068,"componentType":5126,"count":1646,"type":"VEC3"},{"bufferView":2,"byteOffset":281448,"componentType":5123,"count":8610,"type":"SCALAR"},{"bufferView":0,"byteOffset":350820,"componentType":5126,"count":4632,"type":"VEC3","min":[0.00100000005,-0.012087075,-0.0120949484],"max":[0.0130000003,0.0120984521,0.0120912641]},{"bufferView":1,"byteOffset":350820,"componentType":5126,"count":4632,"type":"VEC3"},{"bufferView":2,"byteOffset":298668,"componentType":5123,"count":20214,"type":"SCALAR"},{"bufferView":0,"byteOffset":406404,"componentType":5126,"count":4500,"type":"VEC3","min":[0.00109999999,-0.0176619776,-0.0176619776],"max":[0.00216999999,0.0176619776,0.0176619776]},{"bufferView":1,"byteOffset":406404,"componentType":5126,"count":4500,"type":"VEC3"},{"bufferView":2,"byteOffset":339096,"componentType":5123,"count":21108,"type":"SCALAR"},{"bufferView":0,"byteOffset":460404,"componentType":5126,"count":5029,"type":"VEC3","min":[0.00100000005,-0.0199905187,-0.0199839268],"max":[0.0130000003,0.0199838933,0.01999126]},{"bufferView":1,"byteOffset":460404,"componentType":5126,"count":5029,"type":"VEC3"},{"bufferView":2,"byteOffset":381312,"componentType":5123,"count":25650,"type":"SCALAR"},{"bufferView":0,"byteOffset":520752,"componentType":5126,"count":15166,"type":"VEC3","min":[0.00277999998,-0.0180632677,-0.0180632677],"max":[0.0112199998,0.0180632677,0.0180632677]},{"bufferView":1,"byteOffset":520752,"componentType":5126,"count":15166,"type":"VEC3"},{"bufferView":2,"byteOffset":432612,"componentType":5123,"count":63024,"type":"SCALAR"},{"bufferView":0,"byteOffset":702744,"componentType":5126,"count":11232,"type":"VEC3","min":[-0.0675000027,-0.0349915996,-0.0349658243],"max":[-0.0160099994,0.0349915996,0.0349658243]},{"bufferView":1,"byteOffset":702744,"componentType":5126,"count":11232,"type":"VEC3"},{"bufferView":2,"byteOffset":558660,"componentType":5123,"count":57918,"type":"SCALAR"},{"bufferView":0,"byteOffset":837528,"componentType":5126,"count":404,"type":"VEC3","min":[-0.0579899997,-0.0204425976,-0.0204829071],"max":[-0.0290099997,0.0204938632,0.0204713363]},{"bufferView":1,"byteOffset":837528,"componentType":5126,"count":404,"type":"VEC3"},{"bufferView":2,"byteOffset":674496,"componentType":5123,"count":1260,"type":"SCALAR"},{"bufferView":0,"byteOffset":842376,"componentType":5126,"count":156,"type":"VEC3","min":[-0.0579899997,-0.0349915996,-0.0349658243],"max":[-0.0290099997,0.0349915996,0.0349658243]},{"bufferView":1,"byteOffset":842376,"componentType":5126,"count":156,"type":"VEC3"},{"bufferView":2,"byteOffset":677016,"componentType":5123,"count":468,"type":"SCALAR"},{"bufferView":0,"byteOffset":844248,"componentType":5126,"count":4062,"type":"VEC3","min":[-0.0120000001,-0.0337007083,-0.0337007083],"max":[-0.00499999989,0.0337007083,0.0337007083]},{"bufferView":1,"byteOffset":844248,"componentType":5126,"count":4062,"type":"VEC3"},{"bufferView":2,"byteOffset":677952,"componentType":5123,"count":19188,"type":"SCALAR"},{"bufferView":0,"byteOffset":892992,"componentType":5126,"count":46473,"type":"VEC3","min":[-0.0274999999,-0.0550341196,-0.0550341196],"max":[0.0170000009,0.0550341196,0.0550341196]},{"bufferView":1,"byteOffset":892992,"componentType":5126,"count":46473,"type":"VEC3"},{"bufferView":2,"byteOffset":716328,"componentType":5123,"count":223542,"type":"SCALAR"},{"bufferView":0,"byteOffset":1450668,"componentType":5126,"count":36,"type":"VEC3","min":[-0.00200000009,0.0202656798,-0.0175786745],"max":[-0.00170000002,0.0239638481,-0.015400786]},{"bufferView":1,"byteOffset":1450668,"componentType":5126,"count":36,"type":"VEC3"},{"bufferView":2,"byteOffset":1163412,"componentType":5123,"count":60,"type":"SCALAR"},{"bufferView":0,"byteOffset":1451100,"componentType":5126,"count":36,"type":"VEC3","min":[-0.00200000009,0.0233910922,-0.0119359624],"max":[-0.00170000002,0.026445793,-0.010033845]},{"bufferView":1,"byteOffset":1451100,"componentType":5126,"count":36,"type":"VEC3"},{"bufferView":2,"byteOffset":1163532,"componentType":5123,"count":60,"type":"SCALAR"},{"bufferView":0,"byteOffset":1451532,"componentType":5126,"count":1383,"type":"VEC3","min":[-0.00200000009,0.0120632416,-0.025173001],"max":[-0.00170000002,0.0150684454,-0.0220051631]},{"bufferView":1,"byteOffset":1451532,"componentType":5126,"count":1383,"type":"VEC3"},{"bufferView":2,"byteOffset":1163652,"componentType":5123,"count":3864,"type":"SCALAR"},{"bufferView":0,"byteOffset":1468128,"componentType":5126,"count":1961,"type":"VEC3","min":[-0.00200000009,0.0167089328,-0.0216940362],"max":[-0.00170000002,0.0195868574,-0.0187100451]},{"bufferView":1,"byteOffset":1468128,"componentType":5126,"count":1961,"type":"VEC3"},{"bufferView":2,"byteOffset":1171380,"componentType":5123,"count":5598,"type":"SCALAR"},{"bufferView":0,"byteOffset":1491660,"componentType":5126,"count":1106,"type":"VEC3","min":[-0.00200000009,0.014078496,-0.0235607978],"max":[-0.00170000002,0.0173453297,-0.0200959742]},{"bufferView":1,"byteOffset":1491660,"componentType":5126,"count":1106,"type":"VEC3"},{"bufferView":2,"byteOffset":1182576,"componentType":5123,"count":3078,"type":"SCALAR"},{"bufferView":0,"byteOffset":1504932,"componentType":5126,"count":1418,"type":"VEC3","min":[-0.00200000009,0.0186393354,-0.0195444319],"max":[-0.00170000002,0.0220193043,-0.0167089328]},{"bufferView":1,"byteOffset":1504932,"componentType":5126,"count":1418,"type":"VEC3"},{"bufferView":2,"byteOffset":1188732,"componentType":5123,"count":4008,"type":"SCALAR"},{"bufferView":0,"byteOffset":1521948,"componentType":5126,"count":36,"type":"VEC3","min":[-0.00200000009,0.0218283869,-0.0150401611],"max":[-0.00170000002,0.0255053416,-0.0131521858]},{"bufferView":1,"byteOffset":1521948,"componentType":5126,"count":36,"type":"VEC3"},{"bufferView":2,"byteOffset":1196748,"componentType":5123,"count":60,"type":"SCALAR"},{"bufferView":0,"byteOffset":1522380,"componentType":5126,"count":36,"type":"VEC3","min":[-0.00200000009,0.010146982,-0.0265165046],"max":[-0.00170000002,0.0117167598,-0.0233345237]},{"bufferView":1,"byteOffset":1522380,"componentType":5126,"count":36,"type":"VEC3"},{"bufferView":2,"byteOffset":1196868,"componentType":5123,"count":60,"type":"SCALAR"},{"bufferView":0,"byteOffset":1522812,"componentType":5126,"count":1357,"type":"VEC3","min":[-0.0610000007,-0.0649899989,-0.0625],"max":[-0.0260000005,0.0649899989,0.0625]},{"bufferView":1,"byteOffset":1522812,"componentType":5126,"count":1357,"type":"VEC3"},{"bufferView":2,"byteOffset":1196988,"componentType":5123,"count":3777,"type":"SCALAR"},{"bufferView":0,"byteOffset":1539096,"componentType":5126,"count":2395,"type":"VEC3","min":[-0.0909899995,-0.05748,-0.0574599989],"max":[0.00199000002,0.0574200004,0.0574599989]},{"bufferView":1,"byteOffset":1539096,"componentType":5126,"count":2395,"type":"VEC3"},{"bufferView":2,"byteOffset":1204542,"componentType":5123,"count":12921,"type":"SCALAR"},{"bufferView":0,"byteOffset":1567836,"componentType":5126,"count":50732,"type":"VEC3","min":[-0.0794999972,-0.0362346843,-0.0362379663],"max":[-0.0585100017,0.0362346843,0.0362379663]},{"bufferView":1,"byteOffset":1567836,"componentType":5126,"count":50732,"type":"VEC3"},{"bufferView":2,"byteOffset":1230384,"componentType":5123,"count":229668,"type":"SCALAR"},{"bufferView":0,"byteOffset":2176620,"componentType":5126,"count":4337,"type":"VEC3","min":[-0.0789899975,-0.0107414257,-0.0107381437],"max":[-0.0680100024,0.010745653,0.0107435388]},{"bufferView":1,"byteOffset":2176620,"componentType":5126,"count":4337,"type":"VEC3"},{"bufferView":2,"byteOffset":1689720,"componentType":5123,"count":18756,"type":"SCALAR"},{"bufferView":0,"byteOffset":2228664,"componentType":5126,"count":4569,"type":"VEC3","min":[-0.0789899975,-0.017491892,-0.017488474],"max":[-0.0680100024,0.017491892,0.017488474]},{"bufferView":1,"byteOffset":2228664,"componentType":5126,"count":4569,"type":"VEC3"},{"bufferView":2,"byteOffset":1727232,"componentType":5123,"count":23244,"type":"SCALAR"},{"bufferView":0,"byteOffset":2283492,"componentType":5126,"count":7506,"type":"VEC3","min":[-0.0789399967,-0.0154285347,-0.0154262641],"max":[-0.0782999992,0.0154239936,0.0154280849]},{"bufferView":1,"byteOffset":2283492,"componentType":5126,"count":7506,"type":"VEC3"},{"bufferView":2,"byteOffset":1773720,"componentType":5123,"count":35196,"type":"SCALAR"},{"bufferView":0,"byteOffset":2373564,"componentType":5126,"count":6591,"type":"VEC3","min":[-0.0687000006,-0.0154285347,-0.0154262641],"max":[-0.0680600032,0.0154239936,0.0154280849]},{"bufferView":1,"byteOffset":2373564,"componentType":5126,"count":6591,"type":"VEC3"},{"bufferView":2,"byteOffset":1844112,"componentType":5123,"count":32586,"type":"SCALAR"},{"bufferView":0,"byteOffset":2452656,"componentType":5126,"count":12333,"type":"VEC3","min":[-0.0772399977,-0.015808437,-0.0150120817],"max":[-0.0697600022,0.0155140134,0.0159704927]},{"bufferView":1,"byteOffset":2452656,"componentType":5126,"count":12333,"type":"VEC3"},{"bufferView":2,"byteOffset":1909284,"componentType":5123,"count":50898,"type":"SCALAR"},{"bufferView":0,"byteOffset":2600652,"componentType":5126,"count":13011,"type":"VEC3","min":[-0.0289900005,-0.01535,-0.01535],"max":[-0.0152000003,0.0153400004,0.0153400004]},{"bufferView":1,"byteOffset":2600652,"componentType":5126,"count":13011,"type":"VEC3"},{"bufferView":2,"byteOffset":2011080,"componentType":5123,"count":70482,"type":"SCALAR"},{"bufferView":0,"byteOffset":2756784,"componentType":5126,"count":984,"type":"VEC3","min":[-0.0289900005,-0.0190395247,-0.0190388132],"max":[-0.0149999997,0.019023858,0.0190362856]},{"bufferView":1,"byteOffset":2756784,"componentType":5126,"count":984,"type":"VEC3"},{"bufferView":2,"byteOffset":2152044,"componentType":5123,"count":2952,"type":"SCALAR"},{"bufferView":0,"byteOffset":2768592,"componentType":5126,"count":7997,"type":"VEC3","min":[-0.0260000005,-0.0327322334,-0.0327382311],"max":[-0.0135000004,0.0327322334,0.0327382311]},{"bufferView":1,"byteOffset":2768592,"componentType":5126,"count":7997,"type":"VEC3"},{"bufferView":2,"byteOffset":2157948,"componentType":5123,"count":41220,"type":"SCALAR"},{"bufferView":0,"byteOffset":2864556,"componentType":5126,"count":664,"type":"VEC3","min":[-0.0920000002,-0.00889427774,-0.00889246352],"max":[-0.0909999982,0.0102892676,0.0105090598]},{"bufferView":1,"byteOffset":2864556,"componentType":5126,"count":664,"type":"VEC3"},{"bufferView":2,"byteOffset":2240388,"componentType":5123,"count":1980,"type":"SCALAR"},{"bufferView":0,"byteOffset":2872524,"componentType":5126,"count":676,"type":"VEC3","min":[0.0130000003,-0.0099348044,-0.00993885938],"max":[0.0140000004,0.0129327979,0.00994071737]},{"bufferView":1,"byteOffset":2872524,"componentType":5126,"count":676,"type":"VEC3"},{"bufferView":2,"byteOffset":2244348,"componentType":5123,"count":2016,"type":"SCALAR"},{"bufferView":0,"byteOffset":2880636,"componentType":5126,"count":10846,"type":"VEC3","min":[-0.0900000036,-0.00923999958,-0.00925000012],"max":[-0.0790100023,0.00923999958,0.00923999958]},{"bufferView":1,"byteOffset":2880636,"componentType":5126,"count":10846,"type":"VEC3"},{"bufferView":2,"byteOffset":2248380,"componentType":5123,"count":61608,"type":"SCALAR"},{"bufferView":0,"byteOffset":3010788,"componentType":5126,"count":4161,"type":"VEC3","min":[-0.122000001,-0.00906431023,-0.00908761844],"max":[0.0309900008,0.00906431023,0.00908761844]},{"bufferView":1,"byteOffset":3010788,"componentType":5126,"count":4161,"type":"VEC3"},{"bufferView":2,"byteOffset":2371596,"componentType":5123,"count":14520,"type":"SCALAR"}],"materials":[{"pbrMetallicRoughness":{"baseColorFactor":[0.494117647,0.494117647,0.494117647,1],"metallicFactor":0},"doubleSided":true},{"pbrMetallicRoughness":{"baseColorFactor":[0.725490212,0.349019617,0.0235294122,1],"metallicFactor":0},"doubleSided":true},{"pbrMetallicRoughness":{"baseColorFactor":[0.588235319,0.588235319,0.588235319,1],"metallicFactor":0},"doubleSided":true},{"pbrMetallicRoughness":{"baseColorFactor":[0.898039222,0.917647064,0.929411769,1],"metallicFactor":0},"doubleSided":true},{"pbrMetallicRoughness":{"baseColorFactor":[0.501960814,0.501960814,0.501960814,1],"metallicFactor":0},"doubleSided":true},{"pbrMetallicRoughness":{"metallicFactor":0},"doubleSided":true},{"pbrMetallicRoughness":{"baseColorFactor":[0.792156875,0.819607854,0.933333337,1],"metallicFactor":0},"doubleSided":true},{"pbrMetallicRoughness":{"baseColorFactor":[0.988235295,0.737254918,0.513725519,1],"metallicFactor":0},"doubleSided":true},{"pbrMetallicRoughness":{"baseColorFactor":[0.749019623,0.749019623,0.749019623,1],"metallicFactor":0},"doubleSided":true},{"pbrMetallicRoughness":{"baseColorFactor":[0.752941191,0.752941191,0,1],"metallicFactor":0},"doubleSided":true},{"pbrMetallicRoughness":{"baseColorFactor":[1,0,0,1],"metallicFactor":0},"doubleSided":true},{"pbrMetallicRoughness":{"baseColorFactor":[0.650980413,0.619607866,0.588235319,1],"metallicFactor":0},"doubleSided":true},{"pbrMetallicRoughness":{"baseColorFactor":[0.647058845,0.619607866,0.588235319,1],"metallicFactor":0},"doubleSided":true},{"pbrMetallicRoughness":{"baseColorFactor":[0.325490206,0.305882365,0.282352954,1],"metallicFactor":0},"doubleSided":true}],"meshes":[{"primitives":[{"attributes":{"POSITION":0,"NORMAL":1},"mode":4,"indices":2,"material":0}]},{"primitives":[{"attributes":{"POSITION":3,"NORMAL":4},"mode":4,"indices":5,"material":1}]},{"primitives":[{"attributes":{"POSITION":6,"NORMAL":7},"mode":4,"indices":8,"material":2}]},{"primitives":[{"attributes":{"POSITION":9,"NORMAL":10},"mode":4,"indices":11,"material":2}]},{"primitives":[{"attributes":{"POSITION":12,"NORMAL":13},"mode":4,"indices":14,"material":2}]},{"primitives":[{"attributes":{"POSITION":15,"NORMAL":16},"mode":4,"indices":17,"material":1}]},{"primitives":[{"attributes":{"POSITION":18,"NORMAL":19},"mode":4,"indices":20,"material":2}]},{"primitives":[{"attributes":{"POSITION":21,"NORMAL":22},"mode":4,"indices":23,"material":2}]},{"primitives":[{"attributes":{"POSITION":24,"NORMAL":25},"mode":4,"indices":26,"material":3},{"attributes":{"POSITION":27,"NORMAL":28},"mode":4,"indices":29,"material":4},{"attributes":{"POSITION":30,"NORMAL":31},"mode":4,"indices":32,"material":5}]},{"primitives":[{"attributes":{"POSITION":33,"NORMAL":34},"mode":4,"indices":35,"material":5}]},{"primitives":[{"attributes":{"POSITION":36,"NORMAL":37},"mode":4,"indices":38,"material":6}]},{"primitives":[{"attributes":{"POSITION":39,"NORMAL":40},"mode":4,"indices":41,"material":6}]},{"primitives":[{"attributes":{"POSITION":42,"NORMAL":43},"mode":4,"indices":44,"material":6}]},{"primitives":[{"attributes":{"POSITION":45,"NORMAL":46},"mode":4,"indices":47,"material":6}]},{"primitives":[{"attributes":{"POSITION":48,"NORMAL":49},"mode":4,"indices":50,"material":6}]},{"primitives":[{"attributes":{"POSITION":51,"NORMAL":52},"mode":4,"indices":53,"material":6}]},{"primitives":[{"attributes":{"POSITION":54,"NORMAL":55},"mode":4,"indices":56,"material":6}]},{"primitives":[{"attributes":{"POSITION":57,"NORMAL":58},"mode":4,"indices":59,"material":6}]},{"primitives":[{"attributes":{"POSITION":60,"NORMAL":61},"mode":4,"indices":62,"material":6}]},{"primitives":[{"attributes":{"POSITION":63,"NORMAL":64},"mode":4,"indices":65,"material":4},{"attributes":{"POSITION":66,"NORMAL":67},"mode":4,"indices":68,"material":7}]},{"primitives":[{"attributes":{"POSITION":69,"NORMAL":70},"mode":4,"indices":71,"material":6}]},{"primitives":[{"attributes":{"POSITION":72,"NORMAL":73},"mode":4,"indices":74,"material":8}]},{"primitives":[{"attributes":{"POSITION":75,"NORMAL":76},"mode":4,"indices":77,"material":8}]},{"primitives":[{"attributes":{"POSITION":78,"NORMAL":79},"mode":4,"indices":80,"material":9}]},{"primitives":[{"attributes":{"POSITION":81,"NORMAL":82},"mode":4,"indices":83,"material":9}]},{"primitives":[{"attributes":{"POSITION":84,"NORMAL":85},"mode":4,"indices":86,"material":8}]},{"primitives":[{"attributes":{"POSITION":87,"NORMAL":88},"mode":4,"indices":89,"material":10}]},{"primitives":[{"attributes":{"POSITION":90,"NORMAL":91},"mode":4,"indices":92,"material":11}]},{"primitives":[{"attributes":{"POSITION":93,"NORMAL":94},"mode":4,"indices":95,"material":11}]},{"primitives":[{"attributes":{"POSITION":96,"NORMAL":97},"mode":4,"indices":98,"material":12}]},{"primitives":[{"attributes":{"POSITION":99,"NORMAL":100},"mode":4,"indices":101,"material":13}]},{"primitives":[{"attributes":{"POSITION":102,"NORMAL":103},"mode":4,"indices":104,"material":12}]},{"primitives":[{"attributes":{"POSITION":105,"NORMAL":106},"mode":4,"indices":107,"material":11}]}],"nodes":[{"mesh":0},{"mesh":1},{"mesh":2},{"mesh":3},{"mesh":4},{"mesh":5},{"mesh":6},{"mesh":7},{"mesh":8},{"mesh":9},{"mesh":10},{"mesh":11},{"mesh":12},{"mesh":13},{"mesh":14},{"mesh":15},{"mesh":16},{"mesh":17},{"mesh":18},{"mesh":19},{"mesh":20},{"mesh":21},{"mesh":22},{"mesh":23},{"mesh":24},{"mesh":25},{"mesh":26},{"mesh":27},{"mesh":28},{"mesh":29},{"mesh":30},{"mesh":31},{"mesh":32},{"name":"10001887850swp000","children":[0],"extras":{"Name":"10001887850swp000","FullName":"10001887850swp000<1>","ZDOCUMENTO_PARCIAL_01":"000","ZLAB_ESC":"EG0","ZGRUPO_FAMILIA_DOCUMENTO_01":"00008","ZFAMILIA_DOCUMENTO_01":"00216","SAPName":"0000000000000010001887850","SAPTyp":"SWP","SAPPart":"000","SAPVersion":"00","SAPChType":"View","SAPStatus":"","SAPRefDate":"20120829175146","SAPModified":" "}},{"name":"6203_0","children":[1],"extras":{"Name":"6203","FullName":"6203<1>","ZGRUPO_FAMILIA_DOCUMENTO_01":"00036","ZFAMILIA_DOCUMENTO_01":"00776","ZLAB_ESC":"EG0","SAPModified":"X"}},{"name":"6203_1","children":[2]},{"name":"6203_2","children":[3]},{"name":"6203_3","children":[4]},{"name":"6203_4","children":[5]},{"name":"6203_5","children":[6]},{"name":"6203_6","children":[7]},{"name":"20636 (1) - 10006409135","children":[8],"extras":{"Name":"20636 (1) - 10006409135","FullName":"20636 (1) - 10006409135<1>","ZGRUPO_FAMILIA_DOCUMENTO_01":"00013","ZFAMILIA_DOCUMENTO_01":"00353","ZLAB_ESC":"EG2"}},{"name":"10006507054swp000","children":[9],"extras":{"Name":"10006507054swp000","FullName":"10006507054swp000<1>","ZLAB_ESC":"EG2","LABORATORY":"EG2","DRAWING-DRAW-LABORATORY":"EG2","SAPName":"0000000000000010006507054","SAPTyp":"SWP","SAPPart":"000","SAPVersion":"01","SAPChType":"View","SAPRefDate":"20190701120812","SAPStatus":"","SAPChCount":"-1","SAPModified":" "}},{"name":"10007143105swp000_0","children":[10],"extras":{"Name":"10007143105swp000","FullName":"10007143105swp000<1>","ZLAB_ESC":"EG3","LABORATORY":"EG3","Description":"","SAPName":"0000000000000010007143105","SAPTyp":"SWP","SAPPart":"000","SAPVersion":"03","SAPChType":"View","SAPRefDate":"20220601171951","SAPModified":" ","SAPStatus":"","SAPChCount":"-1"}},{"name":"10007143105swp000_1","children":[11]},{"name":"10007143105swp000_2","children":[12]},{"name":"10007143105swp000_3","children":[13]},{"name":"10007143105swp000_4","children":[14]},{"name":"10007143105swp000_5","children":[15]},{"name":"10007143105swp000_6","children":[16]},{"name":"10007143105swp000_7","children":[17]},{"name":"10007143105swp000_8","children":[18]},{"name":"6003.0430","children":[19],"extras":{"Name":"6003.0430","FullName":"6003.0430<1>","ZGRUPO_FAMILIA_DOCUMENTO_01":"00016","ZFAMILIA_DOCUMENTO_01":"00991","ZLAB_ESC":"EG0","ZDOCUMENTO_PARCIAL_01":"000","SAPName":"0000000000000010001866534","SAPTyp":"SWP","SAPPart":"000","SAPVersion":"01","SAPChType":"Modify","SAPStatus":"","SAPRefDate":"20120814181315","SAPModified":"X"}},{"name":"10007143182swp000","children":[20],"extras":{"Name":"10007143182swp000","FullName":"10007143182swp000<1>","Description":"","ZLAB_ESC":"EG2","LABORATORY":"EG2","SAPName":"0000000000000010007143182","SAPTyp":"SWP","SAPPart":"000","SAPVersion":"03","SAPChType":"View","SAPRefDate":"20220601173542","SAPStatus":"","SAPChCount":"-1","SAPModified":" "}},{"name":"6202_0","children":[21],"extras":{"Name":"6202","FullName":"6202<1>","ZGRUPO_FAMILIA_DOCUMENTO_01":"00036","ZFAMILIA_DOCUMENTO_01":"00776","ZLAB_ESC":"EG1","SAPModified":"X"}},{"name":"6202_1","children":[22]},{"name":"6202_2","children":[23]},{"name":"6202_3","children":[24]},{"name":"6202_4","children":[25]},{"name":"10005743079swp000","children":[26],"extras":{"Name":"10005743079swp000","FullName":"10005743079swp000<1>","ZGRUPO_FAMILIA_DOCUMENTO_01":"00050","ZFAMILIA_DOCUMENTO_01":"00541","ZLAB_ESC":"EG3","SAPName":"0000000000000010005743079","SAPTyp":"SWP","SAPPart":"000","SAPVersion":"00","SAPChType":"View","SAPStatus":"","SAPRefDate":"20180509120639","SAPModified":" ","SAPChCount":"-1"}},{"name":"10008074907swp000_0","children":[27],"extras":{"Name":"10008074907swp000","FullName":"10008074907swp000<1>","Description":"","ZLAB_ESC":"EG2","LABORATORY":"EG2","SAPName":"0000000000000010008074907","SAPTyp":"SWP","SAPPart":"000","SAPVersion":"06","SAPChType":"View","SAPRefDate":"20220518124947","SAPModified":" ","SAPStatus":"","SAPChCount":"-1"}},{"name":"10008074907swp000_1","children":[28]},{"name":"10000698482swp000","children":[29],"extras":{"Name":"10000698482swp000","FullName":"10000698482swp000<1>","ZGRUPO_FAMILIA_DOCUMENTO_01":"00035","ZFAMILIA_DOCUMENTO_01":"00233","ZLAB_ESC":"EG1","ZDOCUMENTO_PARCIAL_01":"000","SAPName":"0000000000000010000698482","SAPTyp":"SWP","SAPPart":"000","SAPVersion":"00","SAPChType":"View","SAPStatus":"","SAPRefDate":"20091130113922","SAPModified":" "}},{"name":"10002805391swp000","children":[30],"extras":{"Name":"10002805391swp000","FullName":"10002805391swp000<1>","ZDOCUMENTO_PARCIAL_01":"000","ZLAB_ESC":"E00","ZGRUPO_FAMILIA_DOCUMENTO_01":"00035","ZFAMILIA_DOCUMENTO_01":"00748","SAPChCount":"-1","Desenho":"TCG-  1E","Material":"10017717","Geometria":"COMP_NORMALIZADOS/DESENHO","Dimensao":".","Area":".","Comprimento":".","Diametro_ext":".","Diametro_int":".","Espessura":".","Largura":".","Altura":".","Cpm":".","Description":"ANEL RETENCAO EXT DIN 471 17X1mm\r\nRETAINING RING EXT DIN 471 17X1mm","MassaBruta":"0.001","SAPName":"0000000000000010002805391","SAPTyp":"SWP","SAPPart":"000","SAPVersion":"00","SAPChType":"View","SAPStatus":"","SAPRefDate":"20151005190627","SAPModified":" "}},{"name":"10006345605swp000","children":[31],"extras":{"Name":"10006345605swp000","FullName":"10006345605swp000<1>","Description":"","ZLAB_ESC":"EG2","LABORATORY":"EG2","DRAWING-DRAW-LABORATORY":"EG2","SAPChCount":"-1","SAPName":"0000000000000010006345605","SAPTyp":"SWP","SAPPart":"000","SAPVersion":"01","SAPChType":"View","SAPStatus":"","SAPRefDate":"20190314114907","SAPModified":" "}},{"name":"10009912555swp000","children":[32],"extras":{"Name":"10009912555SWP000","FullName":"10009912555SWP000<2>","ZGRUPO_FAMILIA_DOCUMENTO_01":"00004","ZFAMILIA_DOCUMENTO_01":"00143","ZLAB_ESC":"EG2","LABORATORY":"EG2","SAPName":"0000000000000010009912555","SAPTyp":"SWP","SAPPart":"000","SAPVersion":"01","SAPChType":"View","SAPRefDate":"20220830124607","SAPStatus":"","SAPChCount":"-1","SAPModified":" ","PDM_DOC_NUM":"224486"}}],"scenes":[{"nodes":[33,34,35,36,37,38,39,40,41,42,43,44,45,46,47,48,49,50,51,52,53,54,55,56,57,58,59,60,61,62,63,64,65]}]}