{"buffers":[{"uri":"MODELO1_AC33_MANAUS.bin","byteLength":6218164}],"asset":{"version":"2.0","generator":"gltfpack 0.16"},"bufferViews":[{"buffer":0,"byteOffset":0,"byteLength":7147},{"buffer":0,"byteOffset":7148,"byteLength":2187888,"byteStride":12,"target":34962},{"buffer":0,"byteOffset":2195036,"byteLength":2187888,"byteStride":12,"target":34962},{"buffer":0,"byteOffset":4382924,"byteLength":1834470,"target":34963},{"buffer":0,"byteOffset":6217396,"byteLength":768,"byteStride":8,"target":34962}],"accessors":[{"bufferView":1,"byteOffset":0,"componentType":5126,"count":27316,"type":"VEC3","min":[0.00850000046,-0.0270036925,-0.0270036925],"max":[0.063500002,0.0270036925,0.0270036925]},{"bufferView":2,"byteOffset":0,"componentType":5126,"count":27316,"type":"VEC3"},{"bufferView":3,"byteOffset":0,"componentType":5123,"count":125868,"type":"SCALAR"},{"bufferView":1,"byteOffset":327792,"componentType":5126,"count":96,"type":"VEC3","min":[0.0205000006,-0.0270036925,-0.0270036925],"max":[0.0514900014,0.0270036925,0.0270036925]},{"bufferView":2,"byteOffset":327792,"componentType":5126,"count":96,"type":"VEC3"},{"bufferView":4,"byteOffset":0,"componentType":5126,"count":96,"type":"VEC2"},{"bufferView":3,"byteOffset":251736,"componentType":5123,"count":288,"type":"SCALAR"},{"bufferView":1,"byteOffset":328944,"componentType":5126,"count":582,"type":"VEC3","min":[0,-0.00400000019,-0.00400000019],"max":[0.136500001,0.00400000019,0.00400000019]},{"bufferView":2,"byteOffset":328944,"componentType":5126,"count":582,"type":"VEC3"},{"bufferView":3,"byteOffset":252312,"componentType":5123,"count":1722,"type":"SCALAR"},{"bufferView":1,"byteOffset":335928,"componentType":5126,"count":10048,"type":"VEC3","min":[0.0610000007,-0.0109881302,-0.0109856138],"max":[0.0680000037,0.0109881302,0.0109856138]},{"bufferView":2,"byteOffset":335928,"componentType":5126,"count":10048,"type":"VEC3"},{"bufferView":3,"byteOffset":255756,"componentType":5123,"count":47874,"type":"SCALAR"},{"bufferView":1,"byteOffset":456504,"componentType":5126,"count":53386,"type":"VEC3","min":[0.0205000006,-0.0519700013,-0.0520000011],"max":[0.074000001,0.0519700013,0.0520000011]},{"bufferView":2,"byteOffset":456504,"componentType":5126,"count":53386,"type":"VEC3"},{"bufferView":3,"byteOffset":351504,"componentType":5123,"count":281412,"type":"SCALAR"},{"bufferView":1,"byteOffset":1097136,"componentType":5126,"count":10048,"type":"VEC3","min":[0,-0.0109799998,-0.0109900003],"max":[0.00700000022,0.0109799998,0.0109900003]},{"bufferView":2,"byteOffset":1097136,"componentType":5126,"count":10048,"type":"VEC3"},{"bufferView":3,"byteOffset":914328,"componentType":5123,"count":47874,"type":"SCALAR"},{"bufferView":1,"byteOffset":1217712,"componentType":5126,"count":17229,"type":"VEC3","min":[0.0140000004,-0.0652749166,-0.0652749166],"max":[0.0370000005,0.0652749166,0.0652749166]},{"bufferView":2,"byteOffset":1217712,"componentType":5126,"count":17229,"type":"VEC3"},{"bufferView":3,"byteOffset":1010076,"componentType":5123,"count":85095,"type":"SCALAR"},{"bufferView":1,"byteOffset":1424460,"componentType":5126,"count":63619,"type":"VEC3","min":[-0.00600000005,-0.0514499992,-0.0520199984],"max":[0.0219500009,0.054680001,0.0595199987]},{"bufferView":2,"byteOffset":1424460,"componentType":5126,"count":63619,"type":"VEC3"},{"bufferView":3,"byteOffset":1180266,"componentType":5123,"count":327102,"type":"SCALAR"}],"images":[{"bufferView":0,"mimeType":"image/jpeg"}],"textures":[{"source":0}],"materials":[{"pbrMetallicRoughness":{"baseColorFactor":[0.866666675,0.909803927,1,1],"metallicFactor":0},"doubleSided":true},{"pbrMetallicRoughness":{"baseColorTexture":{"index":0,"texCoord":0}},"doubleSided":true},{"pbrMetallicRoughness":{"baseColorFactor":[0.647058845,0.619607866,0.588235319,1],"metallicFactor":0},"doubleSided":true},{"pbrMetallicRoughness":{"baseColorFactor":[0.752941191,0.752941191,0.752941191,1],"metallicFactor":0},"doubleSided":true},{"pbrMetallicRoughness":{"metallicFactor":0},"doubleSided":true}],"meshes":[{"primitives":[{"attributes":{"POSITION":0,"NORMAL":1},"mode":4,"indices":2,"material":0},{"attributes":{"POSITION":3,"NORMAL":4,"TEXCOORD_0":5},"mode":4,"indices":6,"material":1}]},{"primitives":[{"attributes":{"POSITION":7,"NORMAL":8},"mode":4,"indices":9,"material":2}]},{"primitives":[{"attributes":{"POSITION":10,"NORMAL":11},"mode":4,"indices":12,"material":3}]},{"primitives":[{"attributes":{"POSITION":13,"NORMAL":14},"mode":4,"indices":15,"material":0}]},{"primitives":[{"attributes":{"POSITION":16,"NORMAL":17},"mode":4,"indices":18,"material":3}]},{"primitives":[{"attributes":{"POSITION":19,"NORMAL":20},"mode":4,"indices":21,"material":4}]},{"primitives":[{"attributes":{"POSITION":22,"NORMAL":23},"mode":4,"indices":24,"material":0}]}],"nodes":[{"mesh":0},{"mesh":1},{"mesh":2},{"mesh":3},{"mesh":4},{"mesh":5},{"mesh":6},{"name":"X-57_X-57 - 10001998300","children":[0],"extras":{"Name":"X-57_X-57 - 10001998300","FullName":"X-57_X-57 - 10001998300<1>","ZDOCUMENTO_PARCIAL_01":"000","ZLAB_ESC":"EG2","ZGRUPO_FAMILIA_DOCUMENTO_01":"00013","ZFAMILIA_DOCUMENTO_01":"01240","SAPName":"0000000000000010001998300","SAPTyp":"SWP","SAPPart":"000","SAPVersion":"01","SAPChType":"View","SAPStatus":"","SAPRefDate":"20170420115508","SAPChCount":"-1","SAPModified":"X"}},{"name":"10009907219SWP000","children":[1],"extras":{"Name":"10009907219SWP000","FullName":"10009907219SWP000<1>","ZLAB_ESC":"EG9","ZGRUPO_FAMILIA_DOCUMENTO_01":"00004","ZFAMILIA_DOCUMENTO_01":"00143","SAPName":"0000000000000010009907219","SAPTyp":"SWP","SAPPart":"000","SAPVersion":"00","SAPChType":"View","SAPRefDate":"20220718150339","SAPModified":" "}},{"name":"608","children":[2],"extras":{"Name":"608","FullName":"608<1>","BOM1":"Bearing","BOM2":"SKF 6201","BOM3":"","SAPModified":"X","Description":"","Material":"EM-V53A P1","Peso":"8.28","Volume":"8275.38","Peso Espec.":"0.00","1ยบ Feito":"-","Substitui":"-","Tol. Geral":"-","Tol. Ang.":"-","Data Desenhado":"-","Reference":"-"}},{"name":"10002971630swp000","children":[3],"extras":{"Name":"10002971630swp000","FullName":"10002971630swp000<1>","ZDOCUMENTO_PARCIAL_01":"000","ZLAB_ESC":"EG9","ZGRUPO_FAMILIA_DOCUMENTO_01":"00001","ZFAMILIA_DOCUMENTO_01":"00019","SAPName":"0000000000000010002971630","SAPTyp":"SWP","SAPPart":"000","SAPVersion":"02","SAPChType":"View","SAPStatus":"","SAPRefDate":"20150330134459","SAPModified":"X"}},{"name":"608","children":[4],"extras":{"Name":"608","FullName":"608<2>","BOM1":"Bearing","BOM2":"SKF 6201","BOM3":"","SAPModified":"X","Description":"","Material":"EM-V53A P1","Peso":"8.28","Volume":"8275.38","Peso Espec.":"0.00","1ยบ Feito":"-","Substitui":"-","Tol. Geral":"-","Tol. Ang.":"-","Data Desenhado":"-","Reference":"-"}},{"name":"10002552202swp000","children":[5],"extras":{"Name":"10002552202swp000","FullName":"10002552202swp000<1>","ZDOCUMENTO_PARCIAL_01":"000","ZLAB_ESC":"EG9","ZGRUPO_FAMILIA_DOCUMENTO_01":"00033","ZFAMILIA_DOCUMENTO_01":"00627","SAPName":"0000000000000010002552202","SAPTyp":"SWP","SAPPart":"000","SAPVersion":"03","SAPChType":"View","SAPStatus":"","SAPRefDate":"20161214124926","SAPChCount":"-1","SAPModified":"X"}},{"name":"10002927366swp00000","children":[6],"extras":{"Name":"10002927366swp00000","FullName":"10002927366swp00000<1>","ZDOCUMENTO_PARCIAL_01":"000","ZLAB_ESC":"EG9","ZGRUPO_FAMILIA_DOCUMENTO_01":"00003","ZFAMILIA_DOCUMENTO_01":"01276","SAPName":"0000000000000010002927366","SAPTyp":"SWP","SAPPart":"000","SAPVersion":"04","SAPChType":"View","SAPStatus":"","SAPRefDate":"20180622124517","SAPChCount":"-1","SAPModified":"X"}}],"scenes":[{"nodes":[7,8,9,10,11,12,13]}]}