{
	"asset": {
		"generator": "VISUALIZEGLTF",
		"version" : "2.0"
	},
	"scenes": [
		{
			"name": "Default",
			"nodes": [
				0]
		}
	],
	"nodes": [
		{
			"children": [
				1, 13, 14, 15, 16
			]
			,"name": "Raiz"		}
,
		{
			"children": [
				2
			]
			,"matrix": [
				1,					0,					0,					0,
				0,					1,					0,					0,
				0,					0,					1,					0,
				0,					0.135866,					0,					1
			]
			,"name": "16556977 com tampas invertidas_VISUALIZE (Valor predeterminado)"		}
,
		{
			"children": [
				3, 4, 5, 6, 7, 8, 9, 10, 11, 12
			]
			,"name": "Valor predeterminado"		}
,
		{
			"mesh": 0
			,"name": "color(Legacy)"		}
,
		{
			"mesh": 1
			,"name": "color(Legacy)-2"		}
,
		{
			"mesh": 2
			,"name": "color(Legacy)-3"		}
,
		{
			"mesh": 3
			,"name": "color(Legacy)-4"		}
,
		{
			"mesh": 4
			,"name": "color(Legacy)-5"		}
,
		{
			"mesh": 5
			,"name": "color(Legacy)-6"		}
,
		{
			"mesh": 6
			,"name": "color(Legacy)-7"		}
,
		{
			"mesh": 7
			,"name": "color(Legacy)-8"		}
,
		{
			"mesh": 8
			,"name": "color(Legacy)-9"		}
,
		{
			"mesh": 9
			,"name": "color(Legacy)-10"		}
,
		{
			"matrix": [
				0.7134897,					-0.2054492,					-0.6698681,					0,
				-0.4364015,					0.6176587,					-0.6542564,					0,
				0.5481663,					0.7591366,					0.3510347,					0,
				0.8123178,					1.247504,					0.5114439,					1
			]
			,"camera": 0
			,"name": "SOLIDWORKS Viewport"		}
,
		{
			"matrix": [
				0.7071068,					0,					-0.7071068,					0,
				-0.1622216,					0.9733286,					-0.1622216,					0,
				0.6882472,					0.2294159,					0.6882472,					0,
				4.445094,					1.981699,					4.445094,					1
			]
			,"camera": 1
			,"name": "Default Camera"		}
,
		{
			"name": "3 Point Faded"		}
,
		{
			"name": "3 Point Faded Backplate"		}
	],
	"cameras": [
		{
			"type": "perspective",
			"perspective" : {
				"aspectRatio": 1.25,
				"yfov" : 0.3215369,
				"zfar" : 100,
				"znear" : 0.01
			}
		}
,
		{
			"type": "perspective",
			"perspective" : {
				"aspectRatio": 1.777778,
				"yfov" : 0.2617994,
				"zfar" : 100,
				"znear" : 0.01
			}
		}
	],
	"meshes" : [
		{
			"primitives" : [
				{
					"attributes" : {
					"POSITION" : 1
					,"NORMAL" : 2
					,"TEXCOORD_0" : 3
					},
					"indices" : 0,
					"mode": 4,
					"material" : 0
				}
			]
		},
		{
			"primitives" : [
				{
					"attributes" : {
					"POSITION" : 5
					,"NORMAL" : 6
					,"TEXCOORD_0" : 7
					},
					"indices" : 4,
					"mode": 4,
					"material" : 1
				},
				{
					"attributes" : {
					"POSITION" : 9
					,"NORMAL" : 10
					,"TEXCOORD_0" : 11
					},
					"indices" : 8,
					"mode": 4,
					"material" : 1
				}
			]
		},
		{
			"primitives" : [
				{
					"attributes" : {
					"POSITION" : 13
					,"NORMAL" : 14
					,"TEXCOORD_0" : 15
					},
					"indices" : 12,
					"mode": 4,
					"material" : 2
				}
			]
		},
		{
			"primitives" : [
				{
					"attributes" : {
					"POSITION" : 17
					,"NORMAL" : 18
					,"TEXCOORD_0" : 19
					},
					"indices" : 16,
					"mode": 4,
					"material" : 3
				},
				{
					"attributes" : {
					"POSITION" : 21
					,"NORMAL" : 22
					,"TEXCOORD_0" : 23
					},
					"indices" : 20,
					"mode": 4,
					"material" : 3
				},
				{
					"attributes" : {
					"POSITION" : 25
					,"NORMAL" : 26
					,"TEXCOORD_0" : 27
					},
					"indices" : 24,
					"mode": 4,
					"material" : 3
				},
				{
					"attributes" : {
					"POSITION" : 29
					,"NORMAL" : 30
					,"TEXCOORD_0" : 31
					},
					"indices" : 28,
					"mode": 4,
					"material" : 3
				},
				{
					"attributes" : {
					"POSITION" : 33
					,"NORMAL" : 34
					,"TEXCOORD_0" : 35
					},
					"indices" : 32,
					"mode": 4,
					"material" : 3
				}
			]
		},
		{
			"primitives" : [
				{
					"attributes" : {
					"POSITION" : 37
					,"NORMAL" : 38
					,"TEXCOORD_0" : 39
					},
					"indices" : 36,
					"mode": 4,
					"material" : 4
				}
			]
		},
		{
			"primitives" : [
				{
					"attributes" : {
					"POSITION" : 41
					,"NORMAL" : 42
					,"TEXCOORD_0" : 43
					},
					"indices" : 40,
					"mode": 4,
					"material" : 5
				}
			]
		},
		{
			"primitives" : [
				{
					"attributes" : {
					"POSITION" : 45
					,"NORMAL" : 46
					,"TEXCOORD_0" : 47
					},
					"indices" : 44,
					"mode": 4,
					"material" : 6
				}
			]
		},
		{
			"primitives" : [
				{
					"attributes" : {
					"POSITION" : 49
					,"NORMAL" : 50
					,"TEXCOORD_0" : 51
					},
					"indices" : 48,
					"mode": 4,
					"material" : 7
				}
			]
		},
		{
			"primitives" : [
				{
					"attributes" : {
					"POSITION" : 53
					,"NORMAL" : 54
					,"TEXCOORD_0" : 55
					},
					"indices" : 52,
					"mode": 4,
					"material" : 8
				}
			]
		},
		{
			"primitives" : [
				{
					"attributes" : {
					"POSITION" : 57
					,"NORMAL" : 58
					,"TEXCOORD_0" : 59
					},
					"indices" : 56,
					"mode": 4,
					"material" : 9
				}
			]
		}
	],
	"accessors" : [
			{
				"bufferView": 3,
				"byteOffset" : 0,
				"componentType" : 5125,
				"count" : 10392,
				"type" : "SCALAR"
			},
			{
				"bufferView": 0,
				"byteOffset" : 0,
				"componentType" : 5126,
				"count" : 5118,
				"type" : "VEC3"
								,"min": [-0.0130000003,-0.0419673994,-0.0419281609]
								,"max": [3.46944695E-17,0.0419281609,0.0419673994]
			},
			{
				"bufferView": 1,
				"byteOffset" : 0,
				"componentType" : 5126,
				"count" : 5118,
				"type" : "VEC3"
			},
			{
				"bufferView": 2,
				"byteOffset" : 0,
				"componentType" : 5126,
				"count" : 5118,
				"type" : "VEC2"
			},
			{
				"bufferView": 7,
				"byteOffset" : 0,
				"componentType" : 5125,
				"count" : 141267,
				"type" : "SCALAR"
			},
			{
				"bufferView": 4,
				"byteOffset" : 0,
				"componentType" : 5126,
				"count" : 65533,
				"type" : "VEC3"
								,"min": [-0.0300000012,-0.0999912322,-0.0948411822]
								,"max": [0.0566902608,0.0984408334,0.0999950245]
			},
			{
				"bufferView": 5,
				"byteOffset" : 0,
				"componentType" : 5126,
				"count" : 65533,
				"type" : "VEC3"
			},
			{
				"bufferView": 6,
				"byteOffset" : 0,
				"componentType" : 5126,
				"count" : 65533,
				"type" : "VEC2"
			},
			{
				"bufferView": 7,
				"byteOffset" : 565068,
				"componentType" : 5125,
				"count" : 84711,
				"type" : "SCALAR"
			},
			{
				"bufferView": 4,
				"byteOffset" : 786396,
				"componentType" : 5126,
				"count" : 38347,
				"type" : "VEC3"
								,"min": [-0.0300000012,-0.039422553,-0.0390088037]
								,"max": [-0.0130000003,0.039422553,0.0390265398]
			},
			{
				"bufferView": 5,
				"byteOffset" : 786396,
				"componentType" : 5126,
				"count" : 38347,
				"type" : "VEC3"
			},
			{
				"bufferView": 6,
				"byteOffset" : 524264,
				"componentType" : 5126,
				"count" : 38347,
				"type" : "VEC2"
			},
			{
				"bufferView": 11,
				"byteOffset" : 0,
				"componentType" : 5125,
				"count" : 324,
				"type" : "SCALAR"
			},
			{
				"bufferView": 8,
				"byteOffset" : 0,
				"componentType" : 5126,
				"count" : 164,
				"type" : "VEC3"
								,"min": [-0.0205000006,0.0101500005,0.0200900007]
								,"max": [0.000500000024,0.0154500008,0.0213900004]
			},
			{
				"bufferView": 9,
				"byteOffset" : 0,
				"componentType" : 5126,
				"count" : 164,
				"type" : "VEC3"
			},
			{
				"bufferView": 10,
				"byteOffset" : 0,
				"componentType" : 5126,
				"count" : 164,
				"type" : "VEC2"
			},
			{
				"bufferView": 15,
				"byteOffset" : 0,
				"componentType" : 5125,
				"count" : 136695,
				"type" : "SCALAR"
			},
			{
				"bufferView": 12,
				"byteOffset" : 0,
				"componentType" : 5126,
				"count" : 65535,
				"type" : "VEC3"
								,"min": [-0.0390000008,-0.043439839,-0.0434684604]
								,"max": [-0.0115,0.0434684604,0.043439839]
			},
			{
				"bufferView": 13,
				"byteOffset" : 0,
				"componentType" : 5126,
				"count" : 65535,
				"type" : "VEC3"
			},
			{
				"bufferView": 14,
				"byteOffset" : 0,
				"componentType" : 5126,
				"count" : 65535,
				"type" : "VEC2"
			},
			{
				"bufferView": 15,
				"byteOffset" : 546780,
				"componentType" : 5125,
				"count" : 153237,
				"type" : "SCALAR"
			},
			{
				"bufferView": 12,
				"byteOffset" : 786420,
				"componentType" : 5126,
				"count" : 65533,
				"type" : "VEC3"
								,"min": [-0.0359293073,-0.0422788523,-0.0429151244]
								,"max": [-0.01522029,0.0422788523,0.0429151244]
			},
			{
				"bufferView": 13,
				"byteOffset" : 786420,
				"componentType" : 5126,
				"count" : 65533,
				"type" : "VEC3"
			},
			{
				"bufferView": 14,
				"byteOffset" : 524280,
				"componentType" : 5126,
				"count" : 65533,
				"type" : "VEC2"
			},
			{
				"bufferView": 15,
				"byteOffset" : 1159728,
				"componentType" : 5125,
				"count" : 139977,
				"type" : "SCALAR"
			},
			{
				"bufferView": 12,
				"byteOffset" : 1572816,
				"componentType" : 5126,
				"count" : 65535,
				"type" : "VEC3"
								,"min": [-0.0390000008,-0.0434333757,-0.0434707366]
								,"max": [0.0260000005,0.0434707366,0.0434333757]
			},
			{
				"bufferView": 13,
				"byteOffset" : 1572816,
				"componentType" : 5126,
				"count" : 65535,
				"type" : "VEC3"
			},
			{
				"bufferView": 14,
				"byteOffset" : 1048544,
				"componentType" : 5126,
				"count" : 65535,
				"type" : "VEC2"
			},
			{
				"bufferView": 15,
				"byteOffset" : 1719636,
				"componentType" : 5125,
				"count" : 149511,
				"type" : "SCALAR"
			},
			{
				"bufferView": 12,
				"byteOffset" : 2359236,
				"componentType" : 5126,
				"count" : 65533,
				"type" : "VEC3"
								,"min": [-0.00150000001,-0.0433092639,-0.0433401763]
								,"max": [0.0260000005,0.0433400236,0.0433092639]
			},
			{
				"bufferView": 13,
				"byteOffset" : 2359236,
				"componentType" : 5126,
				"count" : 65533,
				"type" : "VEC3"
			},
			{
				"bufferView": 14,
				"byteOffset" : 1572824,
				"componentType" : 5126,
				"count" : 65533,
				"type" : "VEC2"
			},
			{
				"bufferView": 15,
				"byteOffset" : 2317680,
				"componentType" : 5125,
				"count" : 112380,
				"type" : "SCALAR"
			},
			{
				"bufferView": 12,
				"byteOffset" : 3145632,
				"componentType" : 5126,
				"count" : 48742,
				"type" : "VEC3"
								,"min": [-0.00150000001,-0.0422788523,-0.0429151244]
								,"max": [0.0226469394,0.0422788523,0.0403366908]
			},
			{
				"bufferView": 13,
				"byteOffset" : 3145632,
				"componentType" : 5126,
				"count" : 48742,
				"type" : "VEC3"
			},
			{
				"bufferView": 14,
				"byteOffset" : 2097088,
				"componentType" : 5126,
				"count" : 48742,
				"type" : "VEC2"
			},
			{
				"bufferView": 19,
				"byteOffset" : 0,
				"componentType" : 5125,
				"count" : 3624,
				"type" : "SCALAR"
			},
			{
				"bufferView": 16,
				"byteOffset" : 0,
				"componentType" : 5126,
				"count" : 1654,
				"type" : "VEC3"
								,"min": [-0.0329999998,-0.0392892398,-0.00847179443]
								,"max": [-0.029944554,0.0248717945,0.00807692297]
			},
			{
				"bufferView": 17,
				"byteOffset" : 0,
				"componentType" : 5126,
				"count" : 1654,
				"type" : "VEC3"
			},
			{
				"bufferView": 18,
				"byteOffset" : 0,
				"componentType" : 5126,
				"count" : 1654,
				"type" : "VEC2"
			},
			{
				"bufferView": 23,
				"byteOffset" : 0,
				"componentType" : 5125,
				"count" : 2652,
				"type" : "SCALAR"
			},
			{
				"bufferView": 20,
				"byteOffset" : 0,
				"componentType" : 5126,
				"count" : 1324,
				"type" : "VEC3"
								,"min": [-0.0354200006,-0.0399202332,-0.00390031957]
								,"max": [0.0254999995,0.0399202332,0.00390031957]
			},
			{
				"bufferView": 21,
				"byteOffset" : 0,
				"componentType" : 5126,
				"count" : 1324,
				"type" : "VEC3"
			},
			{
				"bufferView": 22,
				"byteOffset" : 0,
				"componentType" : 5126,
				"count" : 1324,
				"type" : "VEC2"
			},
			{
				"bufferView": 27,
				"byteOffset" : 0,
				"componentType" : 5125,
				"count" : 11700,
				"type" : "SCALAR"
			},
			{
				"bufferView": 24,
				"byteOffset" : 0,
				"componentType" : 5126,
				"count" : 5028,
				"type" : "VEC3"
								,"min": [0.0195000004,-0.0402414538,-0.0102486396]
								,"max": [0.0445999987,0.0402414538,0.0102466419]
			},
			{
				"bufferView": 25,
				"byteOffset" : 0,
				"componentType" : 5126,
				"count" : 5028,
				"type" : "VEC3"
			},
			{
				"bufferView": 26,
				"byteOffset" : 0,
				"componentType" : 5126,
				"count" : 5028,
				"type" : "VEC2"
			},
			{
				"bufferView": 31,
				"byteOffset" : 0,
				"componentType" : 5125,
				"count" : 1638,
				"type" : "SCALAR"
			},
			{
				"bufferView": 28,
				"byteOffset" : 0,
				"componentType" : 5126,
				"count" : 868,
				"type" : "VEC3"
								,"min": [-0.0355000012,-0.00399797037,-0.00400200021]
								,"max": [0.0364999957,0.00399797037,0.00400200021]
			},
			{
				"bufferView": 29,
				"byteOffset" : 0,
				"componentType" : 5126,
				"count" : 868,
				"type" : "VEC3"
			},
			{
				"bufferView": 30,
				"byteOffset" : 0,
				"componentType" : 5126,
				"count" : 868,
				"type" : "VEC2"
			},
			{
				"bufferView": 35,
				"byteOffset" : 0,
				"componentType" : 5125,
				"count" : 3870,
				"type" : "SCALAR"
			},
			{
				"bufferView": 32,
				"byteOffset" : 0,
				"componentType" : 5126,
				"count" : 2118,
				"type" : "VEC3"
								,"min": [0.0364466235,-0.00425187126,-0.00425484078]
								,"max": [0.0477426499,0.00425369386,0.00425187126]
			},
			{
				"bufferView": 33,
				"byteOffset" : 0,
				"componentType" : 5126,
				"count" : 2118,
				"type" : "VEC3"
			},
			{
				"bufferView": 34,
				"byteOffset" : 0,
				"componentType" : 5126,
				"count" : 2118,
				"type" : "VEC2"
			},
			{
				"bufferView": 39,
				"byteOffset" : 0,
				"componentType" : 5125,
				"count" : 13344,
				"type" : "SCALAR"
			},
			{
				"bufferView": 36,
				"byteOffset" : 0,
				"componentType" : 5126,
				"count" : 6776,
				"type" : "VEC3"
								,"min": [-0.0111999996,-0.0372497514,-0.0372497514]
								,"max": [0.00400000019,0.0372497514,0.0372497514]
			},
			{
				"bufferView": 37,
				"byteOffset" : 0,
				"componentType" : 5126,
				"count" : 6776,
				"type" : "VEC3"
			},
			{
				"bufferView": 38,
				"byteOffset" : 0,
				"componentType" : 5126,
				"count" : 6776,
				"type" : "VEC2"
			}
	],
	"materials": [
			{
				"name": "color(Legacy)",
				"emissiveFactor": [
					0, 0, 0
				]
				,"pbrMetallicRoughness": {
					"baseColorFactor": [
						0.6463463, 0.6963963, 0.9171562, 1
					]
					,"metallicFactor": 0
					,"roughnessFactor": 0.75016
				}
				,"alphaMode": "OPAQUE"
				,"doubleSided": true
			},
			{
				"name": "color(Legacy)-2",
				"emissiveFactor": [
					0, 0, 0
				]
				,"pbrMetallicRoughness": {
					"baseColorFactor": [
						1, 1, 1, 1
					]
					,"metallicFactor": 0
					,"roughnessFactor": 0.75016
				}
				,"alphaMode": "OPAQUE"
				,"doubleSided": true
			},
			{
				"name": "color(Legacy)-3",
				"emissiveFactor": [
					0, 0, 0
				]
				,"pbrMetallicRoughness": {
					"baseColorFactor": [
						0.2677686, 0.1053494, 0.09769461, 1
					]
					,"metallicFactor": 0
					,"roughnessFactor": 0.75016
				}
				,"alphaMode": "OPAQUE"
				,"doubleSided": true
			},
			{
				"name": "color(Legacy)-4",
				"emissiveFactor": [
					0, 0, 0
				]
				,"pbrMetallicRoughness": {
					"baseColorFactor": [
						0.8425817, 0.8753002, 0.9002858, 1
					]
					,"metallicFactor": 0
					,"roughnessFactor": 0.75016
				}
				,"alphaMode": "OPAQUE"
				,"doubleSided": true
			},
			{
				"name": "color(Legacy)-5",
				"emissiveFactor": [
					0, 0, 0
				]
				,"pbrMetallicRoughness": {
					"baseColorFactor": [
						1, 0.2343343, 0.05099997, 1
					]
					,"metallicFactor": 0
					,"roughnessFactor": 0.75016
				}
				,"alphaMode": "OPAQUE"
				,"doubleSided": true
			},
			{
				"name": "color(Legacy)-6",
				"emissiveFactor": [
					0, 0, 0
				]
				,"pbrMetallicRoughness": {
					"baseColorFactor": [
						0.5652589, 0.5652589, 0.5652589, 1
					]
					,"metallicFactor": 0
					,"roughnessFactor": 0.75016
				}
				,"alphaMode": "OPAQUE"
				,"doubleSided": true
			},
			{
				"name": "color(Legacy)-7",
				"emissiveFactor": [
					0, 0, 0
				]
				,"pbrMetallicRoughness": {
					"baseColorFactor": [
						0.6393623, 0.6891215, 0.9086996, 1
					]
					,"metallicFactor": 0
					,"roughnessFactor": 0.75016
				}
				,"alphaMode": "OPAQUE"
				,"doubleSided": true
			},
			{
				"name": "color(Legacy)-8",
				"emissiveFactor": [
					0, 0, 0
				]
				,"pbrMetallicRoughness": {
					"baseColorFactor": [
						0.4096743, 0.3724085, 0.3273285, 1
					]
					,"metallicFactor": 0
					,"roughnessFactor": 0.75016
				}
				,"alphaMode": "OPAQUE"
				,"doubleSided": true
			},
			{
				"name": "color(Legacy)-9",
				"emissiveFactor": [
					0, 0, 0
				]
				,"pbrMetallicRoughness": {
					"baseColorFactor": [
						0.5652589, 0.5652589, 0, 1
					]
					,"metallicFactor": 0
					,"roughnessFactor": 0.75016
				}
				,"alphaMode": "OPAQUE"
				,"doubleSided": true
			},
			{
				"name": "color(Legacy)-10",
				"emissiveFactor": [
					0, 0, 0
				]
				,"pbrMetallicRoughness": {
					"baseColorFactor": [
						0.4151565, 0.3724085, 0.3273285, 1
					]
					,"metallicFactor": 0
					,"roughnessFactor": 0.75016
				}
				,"alphaMode": "OPAQUE"
				,"doubleSided": true
			}
	],
	"bufferViews" : [
			{
				"buffer": 0
				,"byteOffset" : 0
				,"byteLength" : 61416
				,"byteStride" : 12
				,"target" : 34962
			},
			{
				"buffer": 0
				,"byteOffset" : 61416
				,"byteLength" : 61416
				,"byteStride" : 12
				,"target" : 34962
			},
			{
				"buffer": 0
				,"byteOffset" : 122832
				,"byteLength" : 40944
				,"byteStride" : 8
				,"target" : 34962
			},
			{
				"buffer": 0
				,"byteOffset" : 163776
				,"byteLength" : 41568
				,"target" : 34963
			},
			{
				"buffer": 1
				,"byteOffset" : 0
				,"byteLength" : 1246560
				,"byteStride" : 12
				,"target" : 34962
			},
			{
				"buffer": 1
				,"byteOffset" : 1246560
				,"byteLength" : 1246560
				,"byteStride" : 12
				,"target" : 34962
			},
			{
				"buffer": 1
				,"byteOffset" : 2493120
				,"byteLength" : 831040
				,"byteStride" : 8
				,"target" : 34962
			},
			{
				"buffer": 1
				,"byteOffset" : 3324160
				,"byteLength" : 903912
				,"target" : 34963
			},
			{
				"buffer": 2
				,"byteOffset" : 0
				,"byteLength" : 1968
				,"byteStride" : 12
				,"target" : 34962
			},
			{
				"buffer": 2
				,"byteOffset" : 1968
				,"byteLength" : 1968
				,"byteStride" : 12
				,"target" : 34962
			},
			{
				"buffer": 2
				,"byteOffset" : 3936
				,"byteLength" : 1312
				,"byteStride" : 8
				,"target" : 34962
			},
			{
				"buffer": 2
				,"byteOffset" : 5248
				,"byteLength" : 1296
				,"target" : 34963
			},
			{
				"buffer": 3
				,"byteOffset" : 0
				,"byteLength" : 3730536
				,"byteStride" : 12
				,"target" : 34962
			},
			{
				"buffer": 3
				,"byteOffset" : 3730536
				,"byteLength" : 3730536
				,"byteStride" : 12
				,"target" : 34962
			},
			{
				"buffer": 3
				,"byteOffset" : 7461072
				,"byteLength" : 2487024
				,"byteStride" : 8
				,"target" : 34962
			},
			{
				"buffer": 3
				,"byteOffset" : 9948096
				,"byteLength" : 2767200
				,"target" : 34963
			},
			{
				"buffer": 4
				,"byteOffset" : 0
				,"byteLength" : 19848
				,"byteStride" : 12
				,"target" : 34962
			},
			{
				"buffer": 4
				,"byteOffset" : 19848
				,"byteLength" : 19848
				,"byteStride" : 12
				,"target" : 34962
			},
			{
				"buffer": 4
				,"byteOffset" : 39696
				,"byteLength" : 13232
				,"byteStride" : 8
				,"target" : 34962
			},
			{
				"buffer": 4
				,"byteOffset" : 52928
				,"byteLength" : 14496
				,"target" : 34963
			},
			{
				"buffer": 5
				,"byteOffset" : 0
				,"byteLength" : 15888
				,"byteStride" : 12
				,"target" : 34962
			},
			{
				"buffer": 5
				,"byteOffset" : 15888
				,"byteLength" : 15888
				,"byteStride" : 12
				,"target" : 34962
			},
			{
				"buffer": 5
				,"byteOffset" : 31776
				,"byteLength" : 10592
				,"byteStride" : 8
				,"target" : 34962
			},
			{
				"buffer": 5
				,"byteOffset" : 42368
				,"byteLength" : 10608
				,"target" : 34963
			},
			{
				"buffer": 6
				,"byteOffset" : 0
				,"byteLength" : 60336
				,"byteStride" : 12
				,"target" : 34962
			},
			{
				"buffer": 6
				,"byteOffset" : 60336
				,"byteLength" : 60336
				,"byteStride" : 12
				,"target" : 34962
			},
			{
				"buffer": 6
				,"byteOffset" : 120672
				,"byteLength" : 40224
				,"byteStride" : 8
				,"target" : 34962
			},
			{
				"buffer": 6
				,"byteOffset" : 160896
				,"byteLength" : 46800
				,"target" : 34963
			},
			{
				"buffer": 7
				,"byteOffset" : 0
				,"byteLength" : 10416
				,"byteStride" : 12
				,"target" : 34962
			},
			{
				"buffer": 7
				,"byteOffset" : 10416
				,"byteLength" : 10416
				,"byteStride" : 12
				,"target" : 34962
			},
			{
				"buffer": 7
				,"byteOffset" : 20832
				,"byteLength" : 6944
				,"byteStride" : 8
				,"target" : 34962
			},
			{
				"buffer": 7
				,"byteOffset" : 27776
				,"byteLength" : 6552
				,"target" : 34963
			},
			{
				"buffer": 8
				,"byteOffset" : 0
				,"byteLength" : 25416
				,"byteStride" : 12
				,"target" : 34962
			},
			{
				"buffer": 8
				,"byteOffset" : 25416
				,"byteLength" : 25416
				,"byteStride" : 12
				,"target" : 34962
			},
			{
				"buffer": 8
				,"byteOffset" : 50832
				,"byteLength" : 16944
				,"byteStride" : 8
				,"target" : 34962
			},
			{
				"buffer": 8
				,"byteOffset" : 67776
				,"byteLength" : 15480
				,"target" : 34963
			},
			{
				"buffer": 9
				,"byteOffset" : 0
				,"byteLength" : 81312
				,"byteStride" : 12
				,"target" : 34962
			},
			{
				"buffer": 9
				,"byteOffset" : 81312
				,"byteLength" : 81312
				,"byteStride" : 12
				,"target" : 34962
			},
			{
				"buffer": 9
				,"byteOffset" : 162624
				,"byteLength" : 54208
				,"byteStride" : 8
				,"target" : 34962
			},
			{
				"buffer": 9
				,"byteOffset" : 216832
				,"byteLength" : 53376
				,"target" : 34963
			}
	],
	"buffers" : [
			{
				"byteLength": 205344
				,"uri" : "6977_0001.bin"
			},
			{
				"byteLength": 4228072
				,"uri" : "6977_0002.bin"
			},
			{
				"byteLength": 6544
				,"uri" : "6977_0003.bin"
			},
			{
				"byteLength": 12715296
				,"uri" : "6977_0004.bin"
			},
			{
				"byteLength": 67424
				,"uri" : "6977_0005.bin"
			},
			{
				"byteLength": 52976
				,"uri" : "6977_0006.bin"
			},
			{
				"byteLength": 207696
				,"uri" : "6977_0007.bin"
			},
			{
				"byteLength": 34328
				,"uri" : "6977_0008.bin"
			},
			{
				"byteLength": 83256
				,"uri" : "6977_0009.bin"
			},
			{
				"byteLength": 270208
				,"uri" : "6977_0010.bin"
			}
	]
}
