{"buffers":[{"uri":"teste2.bin","byteLength":1973616}],"asset":{"version":"2.0","generator":"gltfpack 0.16"},"bufferViews":[{"buffer":0,"byteOffset":0,"byteLength":812172,"byteStride":12,"target":34962},{"buffer":0,"byteOffset":812172,"byteLength":812172,"byteStride":12,"target":34962},{"buffer":0,"byteOffset":1624344,"byteLength":349272,"target":34963}],"accessors":[{"bufferView":0,"byteOffset":0,"componentType":5126,"count":351,"type":"VEC3","min":[-0.0644500032,0.0425220653,0.0425220653],"max":[-0.0144499997,0.0504624769,0.0504624769]},{"bufferView":1,"byteOffset":0,"componentType":5126,"count":351,"type":"VEC3"},{"bufferView":2,"byteOffset":0,"componentType":5123,"count":966,"type":"SCALAR"},{"bufferView":0,"byteOffset":4212,"componentType":5126,"count":351,"type":"VEC3","min":[-0.0644500032,-0.0504624769,-0.0504624769],"max":[-0.0144499997,-0.0425220653,-0.0425220653]},{"bufferView":1,"byteOffset":4212,"componentType":5126,"count":351,"type":"VEC3"},{"bufferView":2,"byteOffset":1932,"componentType":5123,"count":966,"type":"SCALAR"},{"bufferView":0,"byteOffset":8424,"componentType":5126,"count":4632,"type":"VEC3","min":[0.0280000009,-0.0270473566,-0.0270473566],"max":[0.0450000018,0.0270473566,0.0270473566]},{"bufferView":1,"byteOffset":8424,"componentType":5126,"count":4632,"type":"VEC3"},{"bufferView":2,"byteOffset":3864,"componentType":5123,"count":14268,"type":"SCALAR"},{"bufferView":0,"byteOffset":64008,"componentType":5126,"count":8,"type":"VEC3","min":[-0.0461999997,-0.0189999994,-0.0551000014],"max":[-0.0322000012,0.0189999994,-0.0551000014]},{"bufferView":1,"byteOffset":64008,"componentType":5126,"count":8,"type":"VEC3"},{"bufferView":2,"byteOffset":32400,"componentType":5123,"count":12,"type":"SCALAR"},{"bufferView":0,"byteOffset":64104,"componentType":5126,"count":2078,"type":"VEC3","min":[5.20417043e-18,-0.0176789574,-0.0176789574],"max":[0.0109999999,0.0176789574,0.0176789574]},{"bufferView":1,"byteOffset":64104,"componentType":5126,"count":2078,"type":"VEC3"},{"bufferView":2,"byteOffset":32424,"componentType":5123,"count":4908,"type":"SCALAR"},{"bufferView":0,"byteOffset":89040,"componentType":5126,"count":1450,"type":"VEC3","min":[0.00899999961,-0.0133845648,-0.0136014223],"max":[0.00999999978,0.0136014223,0.0136014223]},{"bufferView":1,"byteOffset":89040,"componentType":5126,"count":1450,"type":"VEC3"},{"bufferView":2,"byteOffset":42240,"componentType":5123,"count":3378,"type":"SCALAR"},{"bufferView":0,"byteOffset":106440,"componentType":5126,"count":2367,"type":"VEC3","min":[0.00200000009,-0.0131677063,-0.0136014223],"max":[0.00800000038,0.0132279657,0.0126376515]},{"bufferView":1,"byteOffset":106440,"componentType":5126,"count":2367,"type":"VEC3"},{"bufferView":2,"byteOffset":48996,"componentType":5123,"count":5202,"type":"SCALAR"},{"bufferView":0,"byteOffset":134844,"componentType":5126,"count":1541,"type":"VEC3","min":[-2.25514052e-17,-0.00860178564,-0.00860178564],"max":[0.00999999978,0.00860178564,0.00860178564]},{"bufferView":1,"byteOffset":134844,"componentType":5126,"count":1541,"type":"VEC3"},{"bufferView":2,"byteOffset":59400,"componentType":5123,"count":3948,"type":"SCALAR"},{"bufferView":0,"byteOffset":153336,"componentType":5126,"count":1565,"type":"VEC3","min":[-2.77555756e-17,-0.0152157685,-0.0152157685],"max":[0.00999999978,0.0152157685,0.0152157685]},{"bufferView":1,"byteOffset":153336,"componentType":5126,"count":1565,"type":"VEC3"},{"bufferView":2,"byteOffset":67296,"componentType":5123,"count":4884,"type":"SCALAR"},{"bufferView":0,"byteOffset":172116,"componentType":5126,"count":1422,"type":"VEC3","min":[-2.60208521e-17,-0.0133845648,-0.0136014223],"max":[0.00100000005,0.0136014223,0.0136014223]},{"bufferView":1,"byteOffset":172116,"componentType":5126,"count":1422,"type":"VEC3"},{"bufferView":2,"byteOffset":77064,"componentType":5123,"count":3378,"type":"SCALAR"},{"bufferView":0,"byteOffset":189180,"componentType":5126,"count":616,"type":"VEC3","min":[-0.0846000016,-0.00377839967,-0.155000001],"max":[-0.0736000016,0.0212216005,-0.126000002]},{"bufferView":1,"byteOffset":189180,"componentType":5126,"count":616,"type":"VEC3"},{"bufferView":2,"byteOffset":83820,"componentType":5123,"count":1326,"type":"SCALAR"},{"bufferView":0,"byteOffset":196572,"componentType":5126,"count":46,"type":"VEC3","min":[-0.0807000026,0.00102160033,-0.119000003],"max":[-0.076700002,0.0180216003,-0.0590000004]},{"bufferView":1,"byteOffset":196572,"componentType":5126,"count":46,"type":"VEC3"},{"bufferView":2,"byteOffset":86472,"componentType":5123,"count":84,"type":"SCALAR"},{"bufferView":0,"byteOffset":197124,"componentType":5126,"count":642,"type":"VEC3","min":[-0.0811000019,0.018721601,-0.144999996],"max":[-0.070100002,0.041721601,-0.127000004]},{"bufferView":1,"byteOffset":197124,"componentType":5126,"count":642,"type":"VEC3"},{"bufferView":2,"byteOffset":86640,"componentType":5123,"count":1476,"type":"SCALAR"},{"bufferView":0,"byteOffset":204828,"componentType":5126,"count":53,"type":"VEC3","min":[-0.0796228871,0.00182178698,-0.130999997],"max":[-0.077622883,0.00482178712,-0.0410000011]},{"bufferView":1,"byteOffset":204828,"componentType":5126,"count":53,"type":"VEC3"},{"bufferView":2,"byteOffset":89592,"componentType":5123,"count":102,"type":"SCALAR"},{"bufferView":0,"byteOffset":205464,"componentType":5126,"count":30,"type":"VEC3","min":[-0.0796228871,0.00782178715,-0.138999999],"max":[-0.077622883,0.00982178655,-0.0500000007]},{"bufferView":1,"byteOffset":205464,"componentType":5126,"count":30,"type":"VEC3"},{"bufferView":2,"byteOffset":89796,"componentType":5123,"count":72,"type":"SCALAR"},{"bufferView":0,"byteOffset":205824,"componentType":5126,"count":55,"type":"VEC3","min":[-0.0796228871,0.012821787,-0.138999999],"max":[-0.077622883,0.0158217866,-0.0410000011]},{"bufferView":1,"byteOffset":205824,"componentType":5126,"count":55,"type":"VEC3"},{"bufferView":2,"byteOffset":89940,"componentType":5123,"count":114,"type":"SCALAR"},{"bufferView":0,"byteOffset":206484,"componentType":5126,"count":4585,"type":"VEC3","min":[-0.0832000002,-0.0549999997,-0.0549999997],"max":[0.00480000023,0.0549999997,0.0549999997]},{"bufferView":1,"byteOffset":206484,"componentType":5126,"count":4585,"type":"VEC3"},{"bufferView":2,"byteOffset":90168,"componentType":5123,"count":14676,"type":"SCALAR"},{"bufferView":0,"byteOffset":261504,"componentType":5126,"count":351,"type":"VEC3","min":[-0.0644500032,0.0425220653,-0.0504624769],"max":[-0.0144499997,0.0504624769,-0.0425220653]},{"bufferView":1,"byteOffset":261504,"componentType":5126,"count":351,"type":"VEC3"},{"bufferView":2,"byteOffset":119520,"componentType":5123,"count":966,"type":"SCALAR"},{"bufferView":0,"byteOffset":265716,"componentType":5126,"count":13994,"type":"VEC3","min":[-0.0913999975,-0.053740114,-0.0544472225],"max":[-0.0533999987,0.053740114,0.053740114]},{"bufferView":1,"byteOffset":265716,"componentType":5126,"count":13994,"type":"VEC3"},{"bufferView":2,"byteOffset":121452,"componentType":5123,"count":33570,"type":"SCALAR"},{"bufferView":0,"byteOffset":433644,"componentType":5126,"count":14914,"type":"VEC3","min":[-0.0250000004,-0.0529999994,-0.0900000036],"max":[0.0130000003,0.0529999994,0.0900000036]},{"bufferView":1,"byteOffset":433644,"componentType":5126,"count":14914,"type":"VEC3"},{"bufferView":2,"byteOffset":188592,"componentType":5123,"count":37608,"type":"SCALAR"},{"bufferView":0,"byteOffset":612612,"componentType":5126,"count":5224,"type":"VEC3","min":[-0.0732000023,-0.0341975987,-0.0341975987],"max":[-0.00520000001,0.0341975987,0.0341975987]},{"bufferView":1,"byteOffset":612612,"componentType":5126,"count":5224,"type":"VEC3"},{"bufferView":2,"byteOffset":263808,"componentType":5123,"count":13920,"type":"SCALAR"},{"bufferView":0,"byteOffset":675300,"componentType":5126,"count":1450,"type":"VEC3","min":[-0.0877000019,-0.0130000003,-0.0130000003],"max":[-0.0866999999,0.0130000003,0.0130000003]},{"bufferView":1,"byteOffset":675300,"componentType":5126,"count":1450,"type":"VEC3"},{"bufferView":2,"byteOffset":291648,"componentType":5123,"count":3378,"type":"SCALAR"},{"bufferView":0,"byteOffset":692700,"componentType":5126,"count":2367,"type":"VEC3","min":[-0.0856999978,-0.0120000001,-0.0130000003],"max":[-0.0797000006,0.0130000003,0.0130000003]},{"bufferView":1,"byteOffset":692700,"componentType":5126,"count":2367,"type":"VEC3"},{"bufferView":2,"byteOffset":298404,"componentType":5123,"count":5202,"type":"SCALAR"},{"bufferView":0,"byteOffset":721104,"componentType":5126,"count":1541,"type":"VEC3","min":[-0.0877000019,-0.00899999961,-0.00899999961],"max":[-0.0776999965,0.00899999961,0.00899999961]},{"bufferView":1,"byteOffset":721104,"componentType":5126,"count":1541,"type":"VEC3"},{"bufferView":2,"byteOffset":308808,"componentType":5123,"count":3948,"type":"SCALAR"},{"bufferView":0,"byteOffset":739596,"componentType":5126,"count":1565,"type":"VEC3","min":[-0.0877000019,-0.0160000008,-0.0160000008],"max":[-0.0776999965,0.0160000008,0.0160000008]},{"bufferView":1,"byteOffset":739596,"componentType":5126,"count":1565,"type":"VEC3"},{"bufferView":2,"byteOffset":316704,"componentType":5123,"count":4884,"type":"SCALAR"},{"bufferView":0,"byteOffset":758376,"componentType":5126,"count":1422,"type":"VEC3","min":[-0.0786999986,-0.0130000003,-0.0130000003],"max":[-0.0776999965,0.0130000003,0.0130000003]},{"bufferView":1,"byteOffset":758376,"componentType":5126,"count":1422,"type":"VEC3"},{"bufferView":2,"byteOffset":326472,"componentType":5123,"count":3378,"type":"SCALAR"},{"bufferView":0,"byteOffset":775440,"componentType":5126,"count":2078,"type":"VEC3","min":[-0.0894000009,-0.0176802333,-0.0176802333],"max":[-0.0784000009,0.0176802333,0.0176802333]},{"bufferView":1,"byteOffset":775440,"componentType":5126,"count":2078,"type":"VEC3"},{"bufferView":2,"byteOffset":333228,"componentType":5123,"count":4908,"type":"SCALAR"},{"bufferView":0,"byteOffset":800376,"componentType":5126,"count":518,"type":"VEC3","min":[-0.0886999965,-0.00600000005,-0.00600000005],"max":[0.0443000011,0.00600000005,0.00600000005]},{"bufferView":1,"byteOffset":800376,"componentType":5126,"count":518,"type":"VEC3"},{"bufferView":2,"byteOffset":343044,"componentType":5123,"count":1872,"type":"SCALAR"},{"bufferView":0,"byteOffset":806592,"componentType":5126,"count":351,"type":"VEC3","min":[-0.0644500032,-0.0504624769,0.0425220653],"max":[-0.0144499997,-0.0425220653,0.0504624769]},{"bufferView":1,"byteOffset":806592,"componentType":5126,"count":351,"type":"VEC3"},{"bufferView":2,"byteOffset":346788,"componentType":5123,"count":966,"type":"SCALAR"},{"bufferView":0,"byteOffset":810804,"componentType":5126,"count":114,"type":"VEC3","min":[-0.0311999992,-0.042570699,-0.0675422698],"max":[-0.0221999995,-0.0275706984,-0.0595422722]},{"bufferView":1,"byteOffset":810804,"componentType":5126,"count":114,"type":"VEC3"},{"bufferView":2,"byteOffset":348720,"componentType":5123,"count":276,"type":"SCALAR"}],"materials":[{"pbrMetallicRoughness":{"baseColorFactor":[0.650980413,0.619607866,0.588235319,1],"metallicFactor":0},"doubleSided":true},{"pbrMetallicRoughness":{"baseColorFactor":[0.866666675,0.909803927,1,1],"metallicFactor":0},"doubleSided":true},{"pbrMetallicRoughness":{"baseColorFactor":[0.792156875,0.819607854,0.933333337,1],"metallicFactor":0},"doubleSided":true},{"pbrMetallicRoughness":{"baseColorFactor":[0.294117659,0.294117659,0.294117659,1],"metallicFactor":0},"doubleSided":true},{"pbrMetallicRoughness":{"baseColorFactor":[1,1,0,1],"metallicFactor":0},"doubleSided":true},{"pbrMetallicRoughness":{"baseColorFactor":[0.749019623,0.749019623,0.749019623,1],"metallicFactor":0},"doubleSided":true},{"pbrMetallicRoughness":{"metallicFactor":0},"doubleSided":true},{"pbrMetallicRoughness":{"baseColorFactor":[0.662745118,0.576470613,0.278431386,1],"metallicFactor":0},"doubleSided":true},{"pbrMetallicRoughness":{"baseColorFactor":[0.909803927,0.443137258,0.0313725509,1],"metallicFactor":0},"doubleSided":true},{"pbrMetallicRoughness":{"baseColorFactor":[0.647058845,0.619607866,0.588235319,1],"metallicFactor":0},"doubleSided":true},{"pbrMetallicRoughness":{"baseColorFactor":[0.941176474,0.674509823,0.117647059,1],"metallicFactor":0},"doubleSided":true}],"meshes":[{"primitives":[{"attributes":{"POSITION":0,"NORMAL":1},"mode":4,"indices":2,"material":0}]},{"primitives":[{"attributes":{"POSITION":3,"NORMAL":4},"mode":4,"indices":5,"material":0}]},{"primitives":[{"attributes":{"POSITION":6,"NORMAL":7},"mode":4,"indices":8,"material":1}]},{"primitives":[{"attributes":{"POSITION":9,"NORMAL":10},"mode":4,"indices":11,"material":2}]},{"primitives":[{"attributes":{"POSITION":12,"NORMAL":13},"mode":4,"indices":14,"material":3}]},{"primitives":[{"attributes":{"POSITION":15,"NORMAL":16},"mode":4,"indices":17,"material":4}]},{"primitives":[{"attributes":{"POSITION":18,"NORMAL":19},"mode":4,"indices":20,"material":5}]},{"primitives":[{"attributes":{"POSITION":21,"NORMAL":22},"mode":4,"indices":23,"material":5}]},{"primitives":[{"attributes":{"POSITION":24,"NORMAL":25},"mode":4,"indices":26,"material":5}]},{"primitives":[{"attributes":{"POSITION":27,"NORMAL":28},"mode":4,"indices":29,"material":4}]},{"primitives":[{"attributes":{"POSITION":30,"NORMAL":31},"mode":4,"indices":32,"material":6}]},{"primitives":[{"attributes":{"POSITION":33,"NORMAL":34},"mode":4,"indices":35,"material":2}]},{"primitives":[{"attributes":{"POSITION":36,"NORMAL":37},"mode":4,"indices":38,"material":7}]},{"primitives":[{"attributes":{"POSITION":39,"NORMAL":40},"mode":4,"indices":41,"material":6}]},{"primitives":[{"attributes":{"POSITION":42,"NORMAL":43},"mode":4,"indices":44,"material":6}]},{"primitives":[{"attributes":{"POSITION":45,"NORMAL":46},"mode":4,"indices":47,"material":6}]},{"primitives":[{"attributes":{"POSITION":48,"NORMAL":49},"mode":4,"indices":50,"material":8}]},{"primitives":[{"attributes":{"POSITION":51,"NORMAL":52},"mode":4,"indices":53,"material":0}]},{"primitives":[{"attributes":{"POSITION":54,"NORMAL":55},"mode":4,"indices":56,"material":2}]},{"primitives":[{"attributes":{"POSITION":57,"NORMAL":58},"mode":4,"indices":59,"material":2}]},{"primitives":[{"attributes":{"POSITION":60,"NORMAL":61},"mode":4,"indices":62,"material":1}]},{"primitives":[{"attributes":{"POSITION":63,"NORMAL":64},"mode":4,"indices":65,"material":4}]},{"primitives":[{"attributes":{"POSITION":66,"NORMAL":67},"mode":4,"indices":68,"material":5}]},{"primitives":[{"attributes":{"POSITION":69,"NORMAL":70},"mode":4,"indices":71,"material":5}]},{"primitives":[{"attributes":{"POSITION":72,"NORMAL":73},"mode":4,"indices":74,"material":5}]},{"primitives":[{"attributes":{"POSITION":75,"NORMAL":76},"mode":4,"indices":77,"material":4}]},{"primitives":[{"attributes":{"POSITION":78,"NORMAL":79},"mode":4,"indices":80,"material":3}]},{"primitives":[{"attributes":{"POSITION":81,"NORMAL":82},"mode":4,"indices":83,"material":9}]},{"primitives":[{"attributes":{"POSITION":84,"NORMAL":85},"mode":4,"indices":86,"material":0}]},{"primitives":[{"attributes":{"POSITION":87,"NORMAL":88},"mode":4,"indices":89,"material":10}]}],"nodes":[{"mesh":0},{"mesh":1},{"mesh":2},{"mesh":3},{"mesh":4},{"mesh":5},{"mesh":6},{"mesh":7},{"mesh":8},{"mesh":9},{"mesh":10},{"mesh":11},{"mesh":12},{"mesh":13},{"mesh":14},{"mesh":15},{"mesh":16},{"mesh":17},{"mesh":18},{"mesh":19},{"mesh":20},{"mesh":21},{"mesh":22},{"mesh":23},{"mesh":24},{"mesh":25},{"mesh":26},{"mesh":27},{"mesh":28},{"mesh":29},{"name":"10001819917swp000","children":[0]},{"name":"10001819917swp000","children":[1]},{"name":"10003175828swp000","children":[2]},{"name":"10005072863swp000","children":[3]},{"name":"10001818955","children":[4]},{"name":"10000629570swp000_0","children":[5]},{"name":"10000629570swp000_1","children":[6]},{"name":"10000629570swp000_2","children":[7]},{"name":"10000629570swp000_3","children":[8]},{"name":"10000629570swp000_4","children":[9]},{"name":"10005072860swp000","children":[10]},{"name":"10005072841swp000","children":[11]},{"name":"10005072848swp000","children":[12]},{"name":"10005072847swp000_0","children":[13]},{"name":"10005072847swp000_1","children":[14]},{"name":"10005072847swp000_2","children":[15]},{"name":"10003056676swp000","children":[16]},{"name":"10001819917swp000","children":[17]},{"name":"10004809861swp000","children":[18]},{"name":"10002735810swp000","children":[19]},{"name":"10001827052swp00000","children":[20]},{"name":"10000629570swp000_0","children":[21]},{"name":"10000629570swp000_1","children":[22]},{"name":"10000629570swp000_2","children":[23]},{"name":"10000629570swp000_3","children":[24]},{"name":"10000629570swp000_4","children":[25]},{"name":"10001818955","children":[26]},{"name":"10002893233swp000","children":[27]},{"name":"10001819917swp000","children":[28]},{"name":"10004865866swp000","children":[29]}],"scenes":[{"nodes":[30,31,32,33,34,35,36,37,38,39,40,41,42,43,44,45,46,47,48,49,50,51,52,53,54,55,56,57,58,59]}]}